<?xml version="1.0" encoding="UTF-8"?>
<svg class="animated" version="1.1" viewBox="0 0 500 500" xmlns="http://www.w3.org/2000/svg">
<style>svg#freepik_stories-data-analysis:not(.animated) .animable {opacity: 0;}svg#freepik_stories-data-analysis.animated #freepik--tab-3--inject-49 {animation: 1.5s Infinite  linear floating;animation-delay: 0s;}svg#freepik_stories-data-analysis.animated #freepik--Text--inject-49 {animation: 1.5s Infinite  linear floating;animation-delay: 0s;}svg#freepik_stories-data-analysis.animated #freepik--Plant--inject-49 {animation: 1.5s Infinite  linear wind;animation-delay: 0s;}svg#freepik_stories-data-analysis.animated #freepik--speech-bubble--inject-49 {animation: 1.5s Infinite  linear wind;animation-delay: 0s;}            @keyframes floating {                0% {                    opacity: 1;                    transform: translateY(0px);                }                50% {                    transform: translateY(-10px);                }                100% {                    opacity: 1;                    transform: translateY(0px);                }            }                    @keyframes wind {                0% {                    transform: rotate( 0deg );                }                25% {                    transform: rotate( 1deg );                }                75% {                    transform: rotate( -1deg );                }            }</style>
<g class="animable" style="transform-origin:250px 343.995px">
<path class="animable" d="m86.26 249.46c-90.43 52.21-90.43 136.86 0 189.07s237.05 52.21 327.48 0 90.43-136.86 0-189.07-237.05-52.21-327.48 0z" fill="#f5f5f5" style="transform-origin:250px 343.995px"/>
</g>
<g class="animable" fill="#e0e0e0" style="transform-origin:258.905px 410.001px">
<path class="animable" d="m104.53 409.13c14.2 8.3 14.2 21.74 0 30s-37.23 8.3-51.43 0-14.21-21.73 0-30 37.22-8.29 51.43 0z" style="transform-origin:78.8131px 424.13px"/>
<path id="b" class="animable" d="m455.68 371.34c26.25 15.32 26.24 40.16 0 55.49s-68.8 15.32-95.05 0-26.24-40.17 0-55.49 68.8-15.34 95.05 0z" style="transform-origin:408.155px 399.083px"/>
<path class="animable" d="m325.14 373.66a10.17 10.17 0 0 1 5 1.23l3.75 2.17a4.22 4.22 0 0 1 0 7.82s-63.81 31.83-63.81 31.84c4.42 4.9 6.38 10.42 5.69 16.07-0.88 7.2-6.15 13.93-14.84 18.95-9.41 5.43-21.88 8.42-35.13 8.42s-25.73-3-35.13-8.42c-9.66-5.58-15-13.08-15-21.12s5.32-15.54 15-21.12c9.4-5.43 21.88-8.42 35.12-8.42 12.76 0 24.83 2.78 34.1 7.85l59.65-33.73a10.23 10.23 0 0 1 5.6-1.54z" style="transform-origin:256.096px 416.909px"/>
</g>
<g class="animable animator-active" style="transform-origin:221.135px 217.893px">
<g class="animable" style="transform-origin:221.135px 217.893px">
<g id="f" class="animable" style="transform-origin:221.135px 217.893px">
<path class="animable" d="M313.1,28.68a2.09,2.09,0,0,0-.09-.51.11.11,0,0,0,0-.11,1.83,1.83,0,0,0-.13-.5,2.41,2.41,0,0,0-.33-.71.88.88,0,0,0-.18-.29.64.64,0,0,0-.16-.2,1.62,1.62,0,0,0-.37-.37l0,0a2.2,2.2,0,0,0-.47-.27,4,4,0,0,0-3.75.47L141.85,121.61c-3.07,1.77-5.58,6.11-5.58,12.32V410.48a3.78,3.78,0,0,0,2,3.35l.24.16c.09.05.18.11.29.16a2.48,2.48,0,0,0,.48.17,3.45,3.45,0,0,0,.71.09,3.62,3.62,0,0,0,1.85-.53l.15-.09h0l5.32-3.07,160.23-92.39a12.32,12.32,0,0,0,5.58-9.66V29.38C313.14,29.14,313.12,28.9,313.1,28.68Z" fill="#fff" style="transform-origin:224.699px 219.932px"/>
<path class="animable" d="M310,27a1.38,1.38,0,0,1,.63.14l.1.05h0l.09.07.05.05.14.18,0,0,0,0,.11.18a.65.65,0,0,1,.11.22l0,.07.15.45v0l0,.05,0,.09a1,1,0,0,1,0,.15c0,.18,0,.37,0,.57V308.67a10.76,10.76,0,0,1-4.78,8.28L146.53,409.33l-5.17,3h-.05l-.15.1-.1.06a2.22,2.22,0,0,1-1,.32H140a2.38,2.38,0,0,1-.37-.05l-.1,0-.15-.08-.12-.08-.09-.06-.06,0-.07,0a2.18,2.18,0,0,1-1.17-1.94V133.93c0-6,2.47-9.6,4.78-10.94l165.7-95.45A3.59,3.59,0,0,1,310,27m0-1.6a5.15,5.15,0,0,0-2.47.75L141.85,121.61c-3.07,1.77-5.58,6.11-5.58,12.32V409.25h0v1.22a3.78,3.78,0,0,0,2,3.35l.24.16c.09.05.18.11.29.16a2.48,2.48,0,0,0,.48.17,3.45,3.45,0,0,0,.71.09h.08a3.62,3.62,0,0,0,1.77-.53l.15-.09h0l5.32-3.07,160.23-92.39a12.32,12.32,0,0,0,5.58-9.66V29.38c0-.24,0-.48,0-.7a2.09,2.09,0,0,0-.09-.51.11.11,0,0,0,0-.11,1.83,1.83,0,0,0-.13-.5,2.41,2.41,0,0,0-.33-.71.88.88,0,0,0-.18-.29.64.64,0,0,0-.16-.2,1.62,1.62,0,0,0-.37-.37l0,0a2.2,2.2,0,0,0-.47-.27A3,3,0,0,0,310,25.4Z" fill="#8c52ff" style="transform-origin:224.695px 219.9px"/>
<path class="animable" d="m311.31 25.68a4 4 0 0 0-3.75 0.47l-165.71 95.46a12.36 12.36 0 0 0-5.58 9.66v10.82l-7.12-4.17v-10.69a12.33 12.33 0 0 1 5.56-9.65l165.73-95.45a3.86 3.86 0 0 1 4-0.33c1.05 0.6 5.68 3.26 6.87 3.88z" fill="#8c52ff" style="transform-origin:220.23px 81.7406px"/>
<path class="animable" d="M313.13,29.34c0-3.52-2.51-4.95-5.58-3.18l-165.7,95.45a12.34,12.34,0,0,0-5.58,9.66V142.1L313.13,40.23Z" fill="#8c52ff" style="transform-origin:224.7px 83.7502px"/>
<g class="animable" opacity=".2" style="transform-origin:221.065px 73.5632px">
<path class="animable" d="m307.55 26.16-165.7 95.45a11.43 11.43 0 0 0-3.92 4.14l-7.09-4.1a11 11 0 0 1 3.88-4.07l165.71-95.46a3.92 3.92 0 0 1 4.05-0.33c1 0.62 5.63 3.25 6.81 3.88a4.07 4.07 0 0 0-3.74 0.49z" fill="#fff" style="transform-origin:221.065px 73.5632px"/>
</g>
<path class="animable" d="m129.14 137.94v-10.72a11.55 11.55 0 0 1 1.7-5.57l7.1 4.08a11.34 11.34 0 0 0-1.66 5.54v10.83z" opacity=".15" style="transform-origin:133.54px 131.875px"/>
<path class="animable" d="m288.91 42.42a5.66 5.66 0 0 0-2.37 4.52c0 1.75 1.06 2.55 2.37 1.79a5.66 5.66 0 0 0 2.37-4.52c0-1.74-1.06-2.55-2.37-1.79z" fill="#fafafa" style="transform-origin:288.91px 45.5757px"/>
<path class="animable" d="m297.43 37.49a5.69 5.69 0 0 0-2.36 4.51c0 1.75 1.06 2.55 2.36 1.79a5.66 5.66 0 0 0 2.37-4.52c0-1.73-1.06-2.53-2.37-1.78z" fill="#fafafa" style="transform-origin:297.435px 40.6428px"/>
<path class="animable" d="m306 32.56a5.69 5.69 0 0 0-2.36 4.53c0 1.74 1.06 2.54 2.36 1.79a5.68 5.68 0 0 0 2.37-4.53c-0.05-1.74-1.11-2.54-2.37-1.79z" fill="#fafafa" style="transform-origin:306.005px 35.72px"/>
<path class="animable" d="M138.27,413.85l-.28-.16-5.88-3.4a5.94,5.94,0,0,1-2.92-4.33,7.34,7.34,0,0,1-.05-.81V137.92l7.13,4.18V410.47a3.64,3.64,0,0,0,1.73,3.16,1.58,1.58,0,0,0,.18.13s0,0,0,0Z" fill="#8c52ff" style="transform-origin:133.705px 275.885px"/>
<path class="animable" d="M138.27,413.85l-.28-.16-5.88-3.4a5.94,5.94,0,0,1-2.92-4.33,7.34,7.34,0,0,1-.05-.81V137.92l7.13,4.18V410.47a3.64,3.64,0,0,0,1.73,3.16,1.58,1.58,0,0,0,.18.13s0,0,0,0Z" fill="#fff" opacity=".5" style="transform-origin:133.705px 275.885px"/>
</g>
</g>
</g>
<g class="animable" style="transform-origin:300.255px 306.066px">
<g class="animable" style="transform-origin:300.255px 306.066px">
<g class="animable" opacity=".2" style="transform-origin:290.685px 303.938px">
<path class="animable" d="M249.44,280.5l82.5-47.62c.77-.45,1.39-.08,1.39.81v91.25a3.1,3.1,0,0,1-1.39,2.43L249.44,375c-.78.44-1.4.08-1.4-.81V282.92A3.08,3.08,0,0,1,249.44,280.5Z" style="transform-origin:290.685px 303.938px"/>
</g>
<path class="animable" d="m330 239.29-76.68 44.25a3.4 3.4 0 0 0-1.54 2.67v88.55a3.34 3.34 0 0 0 1.55 2.65l2.93 1.67a3.48 3.48 0 0 0 3.1 0l76.64-44.26a3.43 3.43 0 0 0 1.54-2.67v-88.55a3.37 3.37 0 0 0-1.55-2.66l-2.99-1.67a3.46 3.46 0 0 0-3 0.02z" fill="#8c52ff" style="transform-origin:294.66px 309.191px"/>
<path class="animable" d="m330 239.29-76.68 44.25a3.4 3.4 0 0 0-1.54 2.67v88.55a3.34 3.34 0 0 0 1.55 2.65l2.93 1.67a3.48 3.48 0 0 0 3.1 0l76.64-44.26a3.43 3.43 0 0 0 1.54-2.67v-88.55a3.37 3.37 0 0 0-1.55-2.66l-2.99-1.67a3.46 3.46 0 0 0-3 0.02z" fill="#fff" opacity=".8" style="transform-origin:294.66px 309.191px"/>
<path class="animable" d="M337.51,243.32c-.12-.78-.76-1.06-1.53-.62L259.31,287a3.18,3.18,0,0,0-1.09,1.15l-6-3.47a3.2,3.2,0,0,1,1.06-1.1L330,239.29a3.46,3.46,0,0,1,3.09,0l2.94,1.67A3.43,3.43,0,0,1,337.51,243.32Z" fill="#8c52ff" opacity=".3" style="transform-origin:294.865px 263.538px"/>
<path class="animable" d="m259.31 379.06a3.55 3.55 0 0 1-3.1 0l-2.93-1.67a3.34 3.34 0 0 1-1.55-2.65v-88.53a3.17 3.17 0 0 1 0.49-1.58l6 3.47a3.15 3.15 0 0 0-0.46 1.52v88.55c0 0.9 0.64 1.42 1.55 0.89z" fill="#8c52ff" opacity=".5" style="transform-origin:255.52px 332.023px"/>
<path class="animable" d="m336 242.71-76.69 44.29a3.42 3.42 0 0 0-1.55 2.67v88.55c0 1 0.7 1.38 1.55 0.89l76.69-44.29a3.43 3.43 0 0 0 1.54-2.67v-88.55c-0.01-0.99-0.7-1.39-1.54-0.89z" fill="#8c52ff" style="transform-origin:297.65px 310.909px"/>
<path class="animable" d="m336 242.71-76.69 44.29a3.42 3.42 0 0 0-1.55 2.67v88.55c0 1 0.7 1.38 1.55 0.89l76.69-44.29a3.43 3.43 0 0 0 1.54-2.67v-88.55c-0.01-0.99-0.7-1.39-1.54-0.89z" fill="#fff" opacity=".8" style="transform-origin:297.65px 310.909px"/>
<path class="animable" d="M336.29,244v88.2a2.21,2.21,0,0,1-.92,1.6L259,377.82v-88.2a2.23,2.23,0,0,1,.92-1.6L336.29,244m.38-1.46a1.32,1.32,0,0,0-.68.22L259.31,287a3.42,3.42,0,0,0-1.55,2.67v88.55c0,.7.35,1.1.86,1.1a1.43,1.43,0,0,0,.69-.21L336,334.82a3.43,3.43,0,0,0,1.54-2.67V243.6c0-.7-.35-1.11-.86-1.11Z" fill="#8c52ff" opacity=".3" style="transform-origin:297.65px 310.905px"/>
<path class="animable" d="M348.52,299.7a.55.55,0,0,0-.56.05l-1.15.77-.25.68a1.32,1.32,0,0,0,.31,1.28c.18.2.36.41.53.64a.76.76,0,0,0,1.06.25l2.7-1.77a.46.46,0,0,1,.53-.05h0Zm-.91-3h0l-3.19-1.83-.21-.08-2-.46a1.1,1.1,0,0,0-1.15.54l-1.9,3.62a1.83,1.83,0,0,1-.77.71l.6,2a.7.7,0,0,0,1,.44,9,9,0,0,1,1.24-.41,1.92,1.92,0,0,0,1.14-.87l1.91-3.63a1.05,1.05,0,0,1,1.14-.52l2,.45A.64.64,0,0,1,347.61,296.66Zm-6.79,9.78a5,5,0,0,1,.37,1.28c.59,3.45-1.59,8.35-4.87,10.93a6.8,6.8,0,0,1-3.45,1.54c1.07,2.31,3.8,2.53,6.64.3,3.29-2.59,5.46-7.48,4.87-10.93C344,307.38,342.62,306.29,340.82,306.44Zm-2,23.55h0l-.08,0Zm-.95-2.64a.69.69,0,0,0-1-.43,9.11,9.11,0,0,1-1.25.41,1.11,1.11,0,0,0-.39.17l.09.28a.56.56,0,0,0,.26.36l3.12,1.8a.68.68,0,0,1-.19-.31ZM334,305.14l-.18-2.89a1.7,1.7,0,0,1,.57-1.29l3-2.38a.49.49,0,0,1,.61-.07h0l-3.2-1.85a.38.38,0,0,0-.22,0,.59.59,0,0,0-.37.14l-3,2.39a1.69,1.69,0,0,0-.58,1.27l.19,2.9a2.4,2.4,0,0,1-.47,1.39c-.5.6-1,1.21-1.42,1.86a1.53,1.53,0,0,1-1.23.63l-2-.1a1.25,1.25,0,0,0-1.11.69l-1.83,4.11a.76.76,0,0,0,.3,1h0l2.17,1.25a1,1,0,0,1,0,.55c-.15.66-.26,1.32-.34,2a2.43,2.43,0,0,1-.65,1.33l-2.69,2.48a1.64,1.64,0,0,0-.45,1.32l.5,2.93a.58.58,0,0,0,.25.4l3.2,1.85h0a.52.52,0,0,1-.25-.4l-.5-2.93a1.58,1.58,0,0,1,.45-1.32l2.68-2.47a2.47,2.47,0,0,0,.66-1.33,17.12,17.12,0,0,1,.34-2,1,1,0,0,0-.55-1.09l-1.57-.67a.78.78,0,0,1-.41-1l1.83-4.11a1.28,1.28,0,0,1,1.12-.69l2,.1a1.62,1.62,0,0,0,1.24-.62c.44-.65.91-1.27,1.4-1.87A2.21,2.21,0,0,0,334,305.14Zm-4.56,20.21a.78.78,0,0,0-1.08-.24l-1.52,1-1.12,3a.68.68,0,0,0,.26.83l3.17,1.82a.66.66,0,0,1-.24-.8l1.37-3.7A1.32,1.32,0,0,0,330,326,5.69,5.69,0,0,1,329.47,325.35Z" fill="#8c52ff" style="transform-origin:336.39px 313.036px"/>
<g class="animable" opacity=".2" style="transform-origin:336.39px 313.036px">
<path class="animable" d="M348.52,299.7a.55.55,0,0,0-.56.05l-1.15.77-.25.68a1.32,1.32,0,0,0,.31,1.28c.18.2.36.41.53.64a.76.76,0,0,0,1.06.25l2.7-1.77a.46.46,0,0,1,.53-.05h0Zm-.91-3h0l-3.19-1.83-.21-.08-2-.46a1.1,1.1,0,0,0-1.15.54l-1.9,3.62a1.83,1.83,0,0,1-.77.71l.6,2a.7.7,0,0,0,1,.44,9,9,0,0,1,1.24-.41,1.92,1.92,0,0,0,1.14-.87l1.91-3.63a1.05,1.05,0,0,1,1.14-.52l2,.45A.64.64,0,0,1,347.61,296.66Zm-6.79,9.78a5,5,0,0,1,.37,1.28c.59,3.45-1.59,8.35-4.87,10.93a6.8,6.8,0,0,1-3.45,1.54c1.07,2.31,3.8,2.53,6.64.3,3.29-2.59,5.46-7.48,4.87-10.93C344,307.38,342.62,306.29,340.82,306.44Zm-2,23.55h0l-.08,0Zm-.95-2.64a.69.69,0,0,0-1-.43,9.11,9.11,0,0,1-1.25.41,1.11,1.11,0,0,0-.39.17l.09.28a.56.56,0,0,0,.26.36l3.12,1.8a.68.68,0,0,1-.19-.31ZM334,305.14l-.18-2.89a1.7,1.7,0,0,1,.57-1.29l3-2.38a.49.49,0,0,1,.61-.07h0l-3.2-1.85a.38.38,0,0,0-.22,0,.59.59,0,0,0-.37.14l-3,2.39a1.69,1.69,0,0,0-.58,1.27l.19,2.9a2.4,2.4,0,0,1-.47,1.39c-.5.6-1,1.21-1.42,1.86a1.53,1.53,0,0,1-1.23.63l-2-.1a1.25,1.25,0,0,0-1.11.69l-1.83,4.11a.76.76,0,0,0,.3,1h0l2.17,1.25a1,1,0,0,1,0,.55c-.15.66-.26,1.32-.34,2a2.43,2.43,0,0,1-.65,1.33l-2.69,2.48a1.64,1.64,0,0,0-.45,1.32l.5,2.93a.58.58,0,0,0,.25.4l3.2,1.85h0a.52.52,0,0,1-.25-.4l-.5-2.93a1.58,1.58,0,0,1,.45-1.32l2.68-2.47a2.47,2.47,0,0,0,.66-1.33,17.12,17.12,0,0,1,.34-2,1,1,0,0,0-.55-1.09l-1.57-.67a.78.78,0,0,1-.41-1l1.83-4.11a1.28,1.28,0,0,1,1.12-.69l2,.1a1.62,1.62,0,0,0,1.24-.62c.44-.65.91-1.27,1.4-1.87A2.21,2.21,0,0,0,334,305.14Zm-4.56,20.21a.78.78,0,0,0-1.08-.24l-1.52,1-1.12,3a.68.68,0,0,0,.26.83l3.17,1.82a.66.66,0,0,1-.24-.8l1.37-3.7A1.32,1.32,0,0,0,330,326,5.69,5.69,0,0,1,329.47,325.35Z" style="transform-origin:336.39px 313.036px"/>
</g>
<path class="animable" d="M327.72,307.18l-2-.1a1.26,1.26,0,0,0-.81.29l3.2,1.85a1.25,1.25,0,0,1,.8-.3l2,.1a1.33,1.33,0,0,0,.57-.12l-3.2-1.84A1.41,1.41,0,0,1,327.72,307.18Zm6.55-10.44-3,2.39a1.56,1.56,0,0,0-.49.78l3.18,1.85a1.64,1.64,0,0,1,.5-.8l3-2.38a.49.49,0,0,1,.61-.07h0l-3.2-1.85A.54.54,0,0,0,334.27,296.74Zm-12.61,23.7a1.56,1.56,0,0,0-.41.76l3.19,1.85a1.52,1.52,0,0,1,.42-.77l2.65-2.44L324.32,318Zm26.86-20.74a.53.53,0,0,0-.56.05l-1.15.77-.25.68a1.14,1.14,0,0,0,0,.85,1.34,1.34,0,0,0,.22.37l0,0,0,0a1.14,1.14,0,0,1,.15.16c.13.14.26.31.39.48a.76.76,0,0,0,.77.35.14.14,0,0,0,.09,0,.61.61,0,0,0,.2-.09l2.7-1.77a.58.58,0,0,1,.33-.12.41.41,0,0,1,.16,0s0,0,.05,0Zm-.91-3h0l-3.19-1.83-.21-.08-2-.46a1.1,1.1,0,0,0-1.15.54l-1.9,3.62a1.66,1.66,0,0,1-.44.49l3.2,1.84a1.49,1.49,0,0,0,.42-.49l1.91-3.63a1.05,1.05,0,0,1,1.14-.52l2,.45A.64.64,0,0,1,347.61,296.66Z" fill="#8c52ff" style="transform-origin:336.435px 308.681px"/>
<path class="animable" d="M327.72,307.18l-2-.1a1.26,1.26,0,0,0-.81.29l3.2,1.85a1.25,1.25,0,0,1,.8-.3l2,.1a1.33,1.33,0,0,0,.57-.12l-3.2-1.84A1.41,1.41,0,0,1,327.72,307.18Zm6.55-10.44-3,2.39a1.56,1.56,0,0,0-.49.78l3.18,1.85a1.64,1.64,0,0,1,.5-.8l3-2.38a.49.49,0,0,1,.61-.07h0l-3.2-1.85A.54.54,0,0,0,334.27,296.74Zm-12.61,23.7a1.56,1.56,0,0,0-.41.76l3.19,1.85a1.52,1.52,0,0,1,.42-.77l2.65-2.44L324.32,318Zm26.86-20.74a.53.53,0,0,0-.56.05l-1.15.77-.25.68a1.14,1.14,0,0,0,0,.85,1.34,1.34,0,0,0,.22.37l0,0,0,0a1.14,1.14,0,0,1,.15.16c.13.14.26.31.39.48a.76.76,0,0,0,.77.35.14.14,0,0,0,.09,0,.61.61,0,0,0,.2-.09l2.7-1.77a.58.58,0,0,1,.33-.12.41.41,0,0,1,.16,0s0,0,.05,0Zm-.91-3h0l-3.19-1.83-.21-.08-2-.46a1.1,1.1,0,0,0-1.15.54l-1.9,3.62a1.66,1.66,0,0,1-.44.49l3.2,1.84a1.49,1.49,0,0,0,.42-.49l1.91-3.63a1.05,1.05,0,0,1,1.14-.52l2,.45A.64.64,0,0,1,347.61,296.66Z" fill="#fff" opacity=".2" style="transform-origin:336.435px 308.681px"/>
<path class="animable" d="M352.46,304.87l-.51-2.93a.48.48,0,0,0-.8-.34l-2.68,1.76a.77.77,0,0,1-1.08-.24,6.59,6.59,0,0,0-.52-.64,1.33,1.33,0,0,1-.32-1.28l1.37-3.7a.68.68,0,0,0-.5-.92l-2-.46a1.11,1.11,0,0,0-1.15.54l-1.9,3.62a2,2,0,0,1-1.15.87,9.11,9.11,0,0,0-1.25.41.69.69,0,0,1-.95-.44l-.69-2.27a.5.5,0,0,0-.85-.27l-3,2.38a1.72,1.72,0,0,0-.57,1.29l.18,2.88a2.29,2.29,0,0,1-.47,1.4q-.75.9-1.41,1.86a1.57,1.57,0,0,1-1.24.63l-1.94-.1a1.25,1.25,0,0,0-1.12.69L326,313.72a.78.78,0,0,0,.41,1l1.58.67a1,1,0,0,1,.54,1.09,17.12,17.12,0,0,0-.34,2,2.44,2.44,0,0,1-.66,1.33l-2.69,2.47a1.65,1.65,0,0,0-.45,1.32l.51,2.93a.48.48,0,0,0,.8.35l2.68-1.77a.78.78,0,0,1,1.08.25,6.59,6.59,0,0,0,.52.64,1.32,1.32,0,0,1,.32,1.28l-1.37,3.7a.68.68,0,0,0,.5.92l2,.45a1.09,1.09,0,0,0,1.15-.53l1.9-3.63a2.07,2.07,0,0,1,1.15-.86,9.11,9.11,0,0,0,1.25-.41.69.69,0,0,1,1,.44l.68,2.27a.51.51,0,0,0,.86.27l3-2.39a1.68,1.68,0,0,0,.57-1.28l-.18-2.89a2.25,2.25,0,0,1,.48-1.39c.49-.6,1-1.22,1.4-1.87a1.56,1.56,0,0,1,1.24-.62l1.95.09a1.24,1.24,0,0,0,1.12-.69l1.83-4.1a.77.77,0,0,0-.41-1l-1.57-.68a1,1,0,0,1-.54-1.08,17.44,17.44,0,0,0,.33-2,2.47,2.47,0,0,1,.66-1.33L352,306.2A1.66,1.66,0,0,0,352.46,304.87Zm-12.95,15.62c-3.29,2.58-6.44,1.88-7-1.57s1.59-8.35,4.87-10.93,6.44-1.88,7,1.57S342.79,317.9,339.51,320.49Z" fill="#8c52ff" style="transform-origin:338.425px 314.237px"/>
<path class="animable" d="M290.31,292.86a2.51,2.51,0,0,0,.72-1.45l.7-7.77a1.89,1.89,0,0,1,.84-1.3l7-4a.65.65,0,0,1,.53-.07l-3.4-2a.59.59,0,0,0-.23,0,.66.66,0,0,0-.34.1l-7,4a1.88,1.88,0,0,0-.82,1.3l-.7,7.78a2.57,2.57,0,0,1-.74,1.44A44.43,44.43,0,0,0,283,295a1.31,1.31,0,0,1-1.38.39l-4.47-1.55a1.06,1.06,0,0,0-1.26.47l-5.14,8.88a1.08,1.08,0,0,0,.23,1.32l3.59,3.1a1.35,1.35,0,0,1,.35,1.38,42.8,42.8,0,0,0-1.61,5.42,2.66,2.66,0,0,1-.9,1.35L266,320.23a1.86,1.86,0,0,0-.71,1.37v8.06a.59.59,0,0,0,.24.53l3.44,2a.59.59,0,0,1-.26-.53v-8.06a1.89,1.89,0,0,1,.72-1.37l6.37-4.49a2.56,2.56,0,0,0,.9-1.35,43.84,43.84,0,0,1,1.61-5.41,1.33,1.33,0,0,0-.34-1.39l-3.6-3.1a1.07,1.07,0,0,1-.22-1.31l5.13-8.9a1.1,1.1,0,0,1,1.26-.47l4.48,1.57a1.31,1.31,0,0,0,1.36-.39A42.32,42.32,0,0,1,290.31,292.86Zm-13.51,37a.73.73,0,0,0-1-.47l-1.5.68c.16.31.32.62.49.89a1.73,1.73,0,0,1,.09,1.52l-4.14,8.34a1,1,0,0,0,.37,1.22l3.43,2a1,1,0,0,1-.37-1.21l4.15-8.36a1.72,1.72,0,0,0-.1-1.5A14.11,14.11,0,0,1,276.8,329.83ZM291.72,345l-.67-6.78a.73.73,0,0,0-.93-.65,15.42,15.42,0,0,1-2.34.32l.51,5.13a.6.6,0,0,0,.27.47l3.44,2A.59.59,0,0,1,291.72,345Zm28-55.41h0a.57.57,0,0,0-.54,0l-4.7,2.12a14.81,14.81,0,0,1,.89,2.18.73.73,0,0,0,1,.48l6.22-2.8a.53.53,0,0,1,.55,0v0Zm-11.24-14.13-5.16,7.77a1.72,1.72,0,0,1-1.35.67c-.34,0-.68,0-1,0l.16,1.65a.74.74,0,0,0,.94.66,14.77,14.77,0,0,1,3.36-.35,1.66,1.66,0,0,0,1.35-.66l5.16-7.76a.94.94,0,0,1,1.24-.29l-3.44-2A1,1,0,0,0,308.44,275.42Zm-5.55,21.39a10.74,10.74,0,0,1,1.53,6.25c0,7.52-5.28,16.67-11.79,20.43-2.55,1.47-4.71,2-6.41,1.55,2.11,2.46,5.72,2.81,9.84.43,6.51-3.76,11.8-12.91,11.8-20.43C307.86,300.47,305.89,297.54,302.89,296.81Z" fill="#8c52ff" style="transform-origin:294.214px 310.254px"/>
<path class="animable" d="M290.31,292.86a2.51,2.51,0,0,0,.72-1.45l.7-7.77a1.89,1.89,0,0,1,.84-1.3l7-4a.65.65,0,0,1,.53-.07l-3.4-2a.59.59,0,0,0-.23,0,.66.66,0,0,0-.34.1l-7,4a1.88,1.88,0,0,0-.82,1.3l-.7,7.78a2.57,2.57,0,0,1-.74,1.44A44.43,44.43,0,0,0,283,295a1.31,1.31,0,0,1-1.38.39l-4.47-1.55a1.06,1.06,0,0,0-1.26.47l-5.14,8.88a1.08,1.08,0,0,0,.23,1.32l3.59,3.1a1.35,1.35,0,0,1,.35,1.38,42.8,42.8,0,0,0-1.61,5.42,2.66,2.66,0,0,1-.9,1.35L266,320.23a1.86,1.86,0,0,0-.71,1.37v8.06a.59.59,0,0,0,.24.53l3.44,2a.59.59,0,0,1-.26-.53v-8.06a1.89,1.89,0,0,1,.72-1.37l6.37-4.49a2.56,2.56,0,0,0,.9-1.35,43.84,43.84,0,0,1,1.61-5.41,1.33,1.33,0,0,0-.34-1.39l-3.6-3.1a1.07,1.07,0,0,1-.22-1.31l5.13-8.9a1.1,1.1,0,0,1,1.26-.47l4.48,1.57a1.31,1.31,0,0,0,1.36-.39A42.32,42.32,0,0,1,290.31,292.86Zm-13.51,37a.73.73,0,0,0-1-.47l-1.5.68c.16.31.32.62.49.89a1.73,1.73,0,0,1,.09,1.52l-4.14,8.34a1,1,0,0,0,.37,1.22l3.43,2a1,1,0,0,1-.37-1.21l4.15-8.36a1.72,1.72,0,0,0-.1-1.5A14.11,14.11,0,0,1,276.8,329.83ZM291.72,345l-.67-6.78a.73.73,0,0,0-.93-.65,15.42,15.42,0,0,1-2.34.32l.51,5.13a.6.6,0,0,0,.27.47l3.44,2A.59.59,0,0,1,291.72,345Zm28-55.41h0a.57.57,0,0,0-.54,0l-4.7,2.12a14.81,14.81,0,0,1,.89,2.18.73.73,0,0,0,1,.48l6.22-2.8a.53.53,0,0,1,.55,0v0Zm-11.24-14.13-5.16,7.77a1.72,1.72,0,0,1-1.35.67c-.34,0-.68,0-1,0l.16,1.65a.74.74,0,0,0,.94.66,14.77,14.77,0,0,1,3.36-.35,1.66,1.66,0,0,0,1.35-.66l5.16-7.76a.94.94,0,0,1,1.24-.29l-3.44-2A1,1,0,0,0,308.44,275.42Zm-5.55,21.39a10.74,10.74,0,0,1,1.53,6.25c0,7.52-5.28,16.67-11.79,20.43-2.55,1.47-4.71,2-6.41,1.55,2.11,2.46,5.72,2.81,9.84.43,6.51-3.76,11.8-12.91,11.8-20.43C307.86,300.47,305.89,297.54,302.89,296.81Z" opacity=".2" style="transform-origin:294.214px 310.254px"/>
<path class="animable" d="M323.36,300.12v-8.06a.52.52,0,0,0-.79-.52l-6.22,2.8a.73.73,0,0,1-1-.47,14.34,14.34,0,0,0-1.39-3.09,1.69,1.69,0,0,1-.09-1.5l4.14-8.35a1,1,0,0,0-.37-1.22l-4.49-2.59a.92.92,0,0,0-1.24.29l-5.16,7.76a1.73,1.73,0,0,1-1.36.67,13.74,13.74,0,0,0-3.36.34.74.74,0,0,1-.93-.66l-.68-6.78a.52.52,0,0,0-.84-.43l-7,4a1.89,1.89,0,0,0-.84,1.3l-.7,7.77a2.57,2.57,0,0,1-.72,1.45,41.05,41.05,0,0,0-3.88,4.11,1.34,1.34,0,0,1-1.37.39l-4.48-1.57a1.09,1.09,0,0,0-1.26.47l-5.13,8.89a1.08,1.08,0,0,0,.22,1.32l3.6,3.1a1.36,1.36,0,0,1,.35,1.38,40.83,40.83,0,0,0-1.62,5.42,2.64,2.64,0,0,1-.89,1.35l-6.38,4.49a1.86,1.86,0,0,0-.71,1.37v8.06a.52.52,0,0,0,.79.52l6.21-2.8a.74.74,0,0,1,1,.48,14.24,14.24,0,0,0,1.38,3.08,1.69,1.69,0,0,1,.1,1.5l-4.14,8.35a.94.94,0,0,0,.36,1.22l4.5,2.6a1,1,0,0,0,1.24-.29l5.16-7.77a1.72,1.72,0,0,1,1.35-.67,13.69,13.69,0,0,0,3.36-.34.74.74,0,0,1,.93.66l.69,6.78a.52.52,0,0,0,.84.43l7-4a1.85,1.85,0,0,0,.83-1.3l.7-7.77a2.52,2.52,0,0,1,.73-1.45,41,41,0,0,0,3.87-4.11,1.37,1.37,0,0,1,1.38-.39l4.48,1.57a1.09,1.09,0,0,0,1.26-.47l5.13-8.89a1.08,1.08,0,0,0-.23-1.32l-3.59-3.1a1.32,1.32,0,0,1-.35-1.38,42.38,42.38,0,0,0,1.62-5.42,2.62,2.62,0,0,1,.89-1.35l6.38-4.49A1.89,1.89,0,0,0,323.36,300.12Zm-27.3,25.35c-6.52,3.76-11.8.71-11.8-6.81s5.28-16.67,11.8-20.43,11.79-.71,11.79,6.81S302.57,321.71,296.06,325.47Z" fill="#8c52ff" style="transform-origin:296.065px 311.828px"/>
<path class="animable" d="M275.89,294.29l-5.14,8.88a1,1,0,0,0-.11.64l3.42,2a1.09,1.09,0,0,1,.13-.64l5.13-8.9a1,1,0,0,1,.87-.51l-3.41-2A1,1,0,0,0,275.89,294.29Zm-3.48,21.45L266,320.23a1.89,1.89,0,0,0-.43.49l3.42,2a1.72,1.72,0,0,1,.44-.48l6.37-4.49a2.46,2.46,0,0,0,.51-.51l-3.44-2A2.33,2.33,0,0,1,272.41,315.74Zm23.7-39.41-7,4a2,2,0,0,0-.7.84l3.43,2a1.82,1.82,0,0,1,.71-.85l7-4a.65.65,0,0,1,.53-.07l-3.4-2A.57.57,0,0,0,296.11,276.33Zm12.33-.91-5.16,7.77a1.34,1.34,0,0,1-.34.33l3.44,2a1.33,1.33,0,0,0,.34-.33l5.16-7.76a.94.94,0,0,1,1.24-.29l-3.44-2A1,1,0,0,0,308.44,275.42Zm14.64,16.1,0,0h0Zm-3.41-2a.6.6,0,0,0-.54,0l-4.7,2.12a12.17,12.17,0,0,1,.51,1.17,8.69,8.69,0,0,1,.37,1,.8.8,0,0,0,.29.4.7.7,0,0,0,.75.08l6.22-2.8a.77.77,0,0,1,.3-.06l.17,0h0l-3.41-2Z" fill="#8c52ff" style="transform-origin:294.325px 298.877px"/>
<path class="animable" d="M275.89,294.29l-5.14,8.88a1,1,0,0,0-.11.64l3.42,2a1.09,1.09,0,0,1,.13-.64l5.13-8.9a1,1,0,0,1,.87-.51l-3.41-2A1,1,0,0,0,275.89,294.29Zm-3.48,21.45L266,320.23a1.89,1.89,0,0,0-.43.49l3.42,2a1.72,1.72,0,0,1,.44-.48l6.37-4.49a2.46,2.46,0,0,0,.51-.51l-3.44-2A2.33,2.33,0,0,1,272.41,315.74Zm23.7-39.41-7,4a2,2,0,0,0-.7.84l3.43,2a1.82,1.82,0,0,1,.71-.85l7-4a.65.65,0,0,1,.53-.07l-3.4-2A.57.57,0,0,0,296.11,276.33Zm12.33-.91-5.16,7.77a1.34,1.34,0,0,1-.34.33l3.44,2a1.33,1.33,0,0,0,.34-.33l5.16-7.76a.94.94,0,0,1,1.24-.29l-3.44-2A1,1,0,0,0,308.44,275.42Zm14.64,16.1,0,0h0Zm-3.41-2a.6.6,0,0,0-.54,0l-4.7,2.12a12.17,12.17,0,0,1,.51,1.17,8.69,8.69,0,0,1,.37,1,.8.8,0,0,0,.29.4.7.7,0,0,0,.75.08l6.22-2.8a.77.77,0,0,1,.3-.06l.17,0h0l-3.41-2Z" fill="#fff" opacity=".2" style="transform-origin:294.325px 298.877px"/>
</g>
</g>
<g class="animable" style="transform-origin:311.93px 175.863px">
<g class="animable" style="transform-origin:311.93px 175.863px">
<path class="animable" d="M374.58,156.78V191.6a2.23,2.23,0,0,1-.92,1.6l-89.29,51.48V209.86a2.21,2.21,0,0,1,.92-1.6l89.29-51.48m.38-1.46a1.46,1.46,0,0,0-.69.21l-89.59,51.66a3.4,3.4,0,0,0-1.54,2.67V245c0,.69.34,1.1.85,1.1a1.43,1.43,0,0,0,.69-.21l89.59-51.66a3.4,3.4,0,0,0,1.55-2.67V156.42c0-.7-.35-1.1-.86-1.1Z" fill="#455a64" style="transform-origin:329.48px 200.71px"/>
<g class="animable" opacity=".2" style="transform-origin:297.145px 170.935px">
<path class="animable" d="M249.44,160.82l95.41-55c.78-.45,1.4-.09,1.4.81v72a3.06,3.06,0,0,1-1.4,2.42l-95.41,55c-.78.45-1.4.09-1.4-.81v-72A3.06,3.06,0,0,1,249.44,160.82Z" style="transform-origin:297.145px 170.935px"/>
</g>
<path class="animable" d="m342.87 112.2-89.6 51.65a3.41 3.41 0 0 0-1.54 2.67v69.29a3.38 3.38 0 0 0 1.55 2.66l2.93 1.66a3.48 3.48 0 0 0 3.1 0l89.59-51.66a3.41 3.41 0 0 0 1.54-2.67v-69.3a3.34 3.34 0 0 0-1.55-2.65l-2.89-1.67a3.46 3.46 0 0 0-3.13 0.02z" fill="#8c52ff" style="transform-origin:301.085px 176.155px"/>
<path class="animable" d="m259.31 240.12a3.55 3.55 0 0 1-3.1 0l-2.93-1.67a3.34 3.34 0 0 1-1.55-2.65v-69.28a3.17 3.17 0 0 1 0.49-1.57l6 3.47a3.15 3.15 0 0 0-0.46 1.52v69.28c0 0.9 0.64 1.42 1.55 0.9z" opacity=".2" style="transform-origin:255.52px 202.713px"/>
<g class="animable" opacity=".2" style="transform-origin:301.32px 140.126px">
<path class="animable" d="m350.42 116.22c-0.12-0.77-0.75-1-1.52-0.61l-89.59 51.66a3.18 3.18 0 0 0-1.09 1.15l-6-3.47a3.2 3.2 0 0 1 1.06-1.1l89.6-51.65a3.43 3.43 0 0 1 3.09 0l2.93 1.67a3.37 3.37 0 0 1 1.52 2.35z" fill="#fff" style="transform-origin:301.32px 140.126px"/>
</g>
<path class="animable" d="m348.9 115.61-89.59 51.66a3.42 3.42 0 0 0-1.55 2.67v69.29c0 1 0.7 1.38 1.55 0.89l89.59-51.66a3.41 3.41 0 0 0 1.54-2.67v-69.29c0-0.98-0.69-1.38-1.54-0.89z" fill="#fff" style="transform-origin:304.1px 177.867px"/>
<path class="animable" d="M349.21,116.86v68.93a2.23,2.23,0,0,1-.92,1.6L259,238.87V169.94a2.23,2.23,0,0,1,.92-1.6l89.29-51.48m.38-1.46a1.43,1.43,0,0,0-.69.21l-89.59,51.66a3.42,3.42,0,0,0-1.55,2.67v69.29c0,.69.35,1.1.86,1.1a1.43,1.43,0,0,0,.69-.21l89.59-51.66a3.41,3.41,0,0,0,1.54-2.67V116.5c0-.69-.34-1.1-.85-1.1Z" fill="#8c52ff" style="transform-origin:304.1px 177.865px"/>
<g class="animable" style="transform-origin:304.112px 180.235px">
<path class="animable" d="M263,228.89a.21.21,0,0,1-.18-.11.2.2,0,0,1,.08-.28l81.34-47a.21.21,0,0,1,.29.08.2.2,0,0,1-.08.28l-81.34,47A.23.23,0,0,1,263,228.89Z" fill="#455a64" style="transform-origin:303.675px 205.181px"/>
<path class="animable" d="M263,229.9a.21.21,0,0,1-.21-.21v-1.95a.21.21,0,0,1,.21-.21.21.21,0,0,1,.21.21v1.95A.21.21,0,0,1,263,229.9Z" fill="#455a64" style="transform-origin:263px 228.715px"/>
<path class="animable" d="M276.56,222a.21.21,0,0,1-.21-.21v-2a.21.21,0,1,1,.42,0v2A.21.21,0,0,1,276.56,222Z" fill="#455a64" style="transform-origin:276.56px 220.79px"/>
<path class="animable" d="M290.12,214.17a.21.21,0,0,1-.21-.21v-2a.21.21,0,0,1,.21-.21.21.21,0,0,1,.21.21v2A.21.21,0,0,1,290.12,214.17Z" fill="#455a64" style="transform-origin:290.12px 212.96px"/>
<path class="animable" d="M303.68,206.3a.2.2,0,0,1-.21-.2v-2a.21.21,0,0,1,.21-.21.2.2,0,0,1,.2.21v2A.2.2,0,0,1,303.68,206.3Z" fill="#455a64" style="transform-origin:303.675px 205.095px"/>
<path class="animable" d="M317.23,198.44a.21.21,0,0,1-.21-.21v-2a.22.22,0,0,1,.21-.21.21.21,0,0,1,.21.21v2A.21.21,0,0,1,317.23,198.44Z" fill="#455a64" style="transform-origin:317.23px 197.23px"/>
<path class="animable" d="M330.79,190.57a.21.21,0,0,1-.21-.21v-2a.21.21,0,0,1,.21-.21.21.21,0,0,1,.21.21v2A.21.21,0,0,1,330.79,190.57Z" fill="#455a64" style="transform-origin:330.79px 189.36px"/>
<path class="animable" d="M344.35,182.71a.21.21,0,0,1-.21-.21v-2a.21.21,0,0,1,.21-.21.22.22,0,0,1,.21.21v2A.22.22,0,0,1,344.35,182.71Z" fill="#455a64" style="transform-origin:344.35px 181.5px"/>
<path class="animable" d="m263 209.11c6.78-3.92 8.48 4.89 13.56 2s1.69-20.55 10.17-25.44 6.78 11.74 15.25 6.84 5.08-36.2 13.56-41.09 6.78 19.81 15.25 14.8 3.39-29.48 13.56-35.35v47l-81.35 47z" fill="#8c52ff" opacity=".7" style="transform-origin:303.675px 177.87px"/>
<path class="animable" d="M344.35,139.69V177.8l-81.35,47v-5.87l6-6c.12.3.43.38.79.17a1.86,1.86,0,0,0,.85-1.47.61.61,0,0,0-.21-.52l5.5-8.74a.56.56,0,0,0,.64,0,1.77,1.77,0,0,0,.67-.78l5.43,1.56a1.59,1.59,0,0,0-.17.69c0,.54.38.76.85.49a1.91,1.91,0,0,0,.84-1.47.87.87,0,0,0-.08-.39l5.26-6.08c.13.25.42.31.76.11a1.86,1.86,0,0,0,.84-1.46.65.65,0,0,0-.17-.49l5.43-7.84a.56.56,0,0,0,.68,0,1.91,1.91,0,0,0,.84-1.47.75.75,0,0,0,0-.22l5.13-4.46c.1.38.43.5.83.28a1.92,1.92,0,0,0,.84-1.47.75.75,0,0,0-.09-.39l5.27-6.08c.13.24.42.3.75.1a1.59,1.59,0,0,0,.6-.63l5.58,3.23a1.74,1.74,0,0,0-.25.83c0,.54.38.76.85.49a1.87,1.87,0,0,0,.85-1.47.78.78,0,0,0,0-.22l5.14-4.45c.09.38.42.5.82.27a1.87,1.87,0,0,0,.85-1.47.54.54,0,0,0-.32-.57h0l5.72-11.56a.63.63,0,0,0,.53-.09,1.86,1.86,0,0,0,.85-1.46h0l5.08-2.93c0,.54.38.76.85.49a1.87,1.87,0,0,0,.85-1.47.56.56,0,0,0-.32-.58l5.7-11.52A.63.63,0,0,0,344.35,139.69Z" fill="#8c52ff" opacity=".7" style="transform-origin:303.675px 182.245px"/>
<path class="animable" d="M263,219.1a.21.21,0,0,1-.15-.35l6-6.05a.21.21,0,0,1,.29,0,.2.2,0,0,1,0,.29l-6,6A.2.2,0,0,1,263,219.1Z" fill="#455a64" style="transform-origin:265.999px 215.871px"/>
<path class="animable" d="M270.42,211.24a.2.2,0,0,1-.11,0,.21.21,0,0,1-.07-.29l5.51-8.74a.2.2,0,0,1,.28-.07.21.21,0,0,1,.07.29l-5.51,8.75A.2.2,0,0,1,270.42,211.24Z" fill="#455a64" style="transform-origin:273.17px 206.679px"/>
<path class="animable" d="M282.66,203.25h-.06l-5.42-1.56a.21.21,0,0,1-.14-.26.19.19,0,0,1,.25-.14l5.43,1.56a.21.21,0,0,1,.14.26A.21.21,0,0,1,282.66,203.25Z" fill="#455a64" style="transform-origin:279.95px 202.264px"/>
<path class="animable" d="M284.09,202.58a.18.18,0,0,1-.13-.06.21.21,0,0,1,0-.29l5.27-6.08a.2.2,0,0,1,.29,0,.21.21,0,0,1,0,.29l-5.27,6.08A.21.21,0,0,1,284.09,202.58Z" fill="#455a64" style="transform-origin:286.74px 199.334px"/>
<path class="animable" d="M290.8,194.64a.16.16,0,0,1-.12,0,.21.21,0,0,1-.06-.29l5.43-7.83a.22.22,0,0,1,.29,0,.21.21,0,0,1,.05.29L291,194.55A.21.21,0,0,1,290.8,194.64Z" fill="#455a64" style="transform-origin:293.507px 190.559px"/>
<path class="animable" d="M297.72,185.12a.2.2,0,0,1-.16-.07.2.2,0,0,1,0-.29l5.14-4.45a.21.21,0,0,1,.27.31l-5.14,4.45A.17.17,0,0,1,297.72,185.12Z" fill="#455a64" style="transform-origin:300.255px 182.702px"/>
<path class="animable" d="M304.43,179.09a.19.19,0,0,1-.13-.05.22.22,0,0,1,0-.3l5.27-6.08a.22.22,0,0,1,.3,0,.23.23,0,0,1,0,.3L304.59,179A.2.2,0,0,1,304.43,179.09Z" fill="#455a64" style="transform-origin:307.083px 175.845px"/>
<path class="animable" d="M316.63,175.7l-.1,0L311,172.45a.2.2,0,0,1-.08-.28.21.21,0,0,1,.29-.08l5.58,3.22a.21.21,0,0,1,.07.29A.2.2,0,0,1,316.63,175.7Z" fill="#455a64" style="transform-origin:313.892px 173.884px"/>
<path class="animable" d="M318.05,175.34a.23.23,0,0,1-.15-.07.21.21,0,0,1,0-.3l5.13-4.44a.21.21,0,0,1,.27.31l-5.13,4.45A.24.24,0,0,1,318.05,175.34Z" fill="#455a64" style="transform-origin:320.59px 172.922px"/>
<path class="animable" d="M324.54,169.11l-.09,0a.21.21,0,0,1-.1-.28l5.71-11.54a.21.21,0,0,1,.28-.09.21.21,0,0,1,.1.28L324.73,169A.21.21,0,0,1,324.54,169.11Z" fill="#455a64" style="transform-origin:327.395px 163.144px"/>
<path class="animable" d="M331.64,156a.22.22,0,0,1-.18-.1.21.21,0,0,1,.07-.29l5.09-2.93a.2.2,0,0,1,.28.07.21.21,0,0,1-.07.29L331.74,156A.19.19,0,0,1,331.64,156Z" fill="#455a64" style="transform-origin:334.18px 154.328px"/>
<path class="animable" d="M338.1,151.5l-.09,0a.21.21,0,0,1-.1-.28l5.7-11.52a.21.21,0,1,1,.38.18l-5.71,11.52A.19.19,0,0,1,338.1,151.5Z" fill="#455a64" style="transform-origin:340.95px 145.54px"/>
<path class="animable" d="M269.4,213.35a.62.62,0,0,1-.32-.09.79.79,0,0,1-.36-.73,2.08,2.08,0,0,1,1-1.65h0a.73.73,0,0,1,1.16.67,2.07,2.07,0,0,1-1,1.65A.93.93,0,0,1,269.4,213.35Zm.48-2.1a1.67,1.67,0,0,0-.74,1.28c0,.18.05.32.15.37a.42.42,0,0,0,.39-.06,1.67,1.67,0,0,0,.74-1.29.39.39,0,0,0-.14-.36.41.41,0,0,0-.4.06Z" fill="#455a64" style="transform-origin:269.801px 212.043px"/>
<path class="animable" d="M276.18,202.58a.57.57,0,0,1-.32-.08.79.79,0,0,1-.36-.73,2.07,2.07,0,0,1,1-1.65h0a.78.78,0,0,1,.8-.06.79.79,0,0,1,.36.73,2.07,2.07,0,0,1-1,1.65A.91.91,0,0,1,276.18,202.58Zm.48-2.1a1.7,1.7,0,0,0-.74,1.29.41.41,0,0,0,.14.37.44.44,0,0,0,.4-.06,1.67,1.67,0,0,0,.74-1.29.41.41,0,0,0-.15-.37.42.42,0,0,0-.39.06Z" fill="#455a64" style="transform-origin:276.58px 201.279px"/>
<path class="animable" d="M283,204.54a.73.73,0,0,1-.33-.08.8.8,0,0,1-.35-.73,2.08,2.08,0,0,1,1-1.65A.8.8,0,0,1,284,202a.78.78,0,0,1,.35.73,2.06,2.06,0,0,1-.95,1.65A1,1,0,0,1,283,204.54Zm.76-2.19a.57.57,0,0,0-.28.09,1.67,1.67,0,0,0-.74,1.29.43.43,0,0,0,.14.37.42.42,0,0,0,.39-.06,1.68,1.68,0,0,0,.75-1.29.42.42,0,0,0-.15-.37A.2.2,0,0,0,283.72,202.35Z" fill="#455a64" style="transform-origin:283.336px 203.249px"/>
<path class="animable" d="M289.74,196.72a.73.73,0,0,1-.33-.08.83.83,0,0,1-.35-.73,2.08,2.08,0,0,1,.95-1.65h0a.8.8,0,0,1,.81-.06.78.78,0,0,1,.35.73,2.07,2.07,0,0,1-.95,1.65A1,1,0,0,1,289.74,196.72Zm.48-2.1a1.67,1.67,0,0,0-.74,1.29.39.39,0,0,0,.14.36.37.37,0,0,0,.39-.06,1.65,1.65,0,0,0,.75-1.28.32.32,0,0,0-.54-.31Z" fill="#455a64" style="transform-origin:290.116px 195.419px"/>
<path class="animable" d="M296.52,186.93a.63.63,0,0,1-.33-.09.8.8,0,0,1-.35-.72,2.07,2.07,0,0,1,1-1.65h0a.8.8,0,0,1,.81-.06.78.78,0,0,1,.35.73,2.07,2.07,0,0,1-.95,1.64A1,1,0,0,1,296.52,186.93Zm.48-2.1a1.67,1.67,0,0,0-.74,1.29.31.31,0,0,0,.53.3,1.67,1.67,0,0,0,.74-1.28.41.41,0,0,0-.14-.37.42.42,0,0,0-.39.06Z" fill="#455a64" style="transform-origin:296.921px 185.629px"/>
<path class="animable" d="M303.3,181.06A.63.63,0,0,1,303,181a.78.78,0,0,1-.35-.73,2.07,2.07,0,0,1,.95-1.64h0a.8.8,0,0,1,.81-.06.78.78,0,0,1,.35.73,2.07,2.07,0,0,1-1,1.64A1,1,0,0,1,303.3,181.06Zm.48-2.1a1.67,1.67,0,0,0-.74,1.28c0,.19,0,.32.14.37s.23,0,.39-.06a1.67,1.67,0,0,0,.74-1.28c0-.19-.05-.32-.14-.37a.42.42,0,0,0-.39.06Z" fill="#455a64" style="transform-origin:303.705px 179.774px"/>
<path class="animable" d="M316.85,177.15a.62.62,0,0,1-.32-.09.78.78,0,0,1-.35-.73,2.06,2.06,0,0,1,.95-1.65.72.72,0,0,1,1.16.67,2.08,2.08,0,0,1-1,1.65A1,1,0,0,1,316.85,177.15Zm.76-2.19a.63.63,0,0,0-.27.08,1.68,1.68,0,0,0-.75,1.29.32.32,0,0,0,.54.31,1.67,1.67,0,0,0,.74-1.29.43.43,0,0,0-.14-.37Z" fill="#455a64" style="transform-origin:317.237px 175.837px"/>
<path class="animable" d="M323.63,171.27a.61.61,0,0,1-.32-.08.78.78,0,0,1-.35-.73,2.06,2.06,0,0,1,1-1.65h0a.72.72,0,0,1,1.16.67,2.08,2.08,0,0,1-.95,1.65A.94.94,0,0,1,323.63,171.27Zm.49-2.1a1.67,1.67,0,0,0-.75,1.29.43.43,0,0,0,.15.37.42.42,0,0,0,.39-.06,1.67,1.67,0,0,0,.74-1.29.43.43,0,0,0-.14-.37.42.42,0,0,0-.39.06Z" fill="#455a64" style="transform-origin:324.042px 169.962px"/>
<path class="animable" d="M337.19,153.66a.73.73,0,0,1-.33-.08.8.8,0,0,1-.35-.73,2.08,2.08,0,0,1,.95-1.65h0a.8.8,0,0,1,.81-.06.78.78,0,0,1,.35.73,2.06,2.06,0,0,1-.95,1.65A1,1,0,0,1,337.19,153.66Zm.48-2.1a1.67,1.67,0,0,0-.74,1.29.43.43,0,0,0,.14.37.42.42,0,0,0,.39-.06,1.68,1.68,0,0,0,.75-1.29c0-.18,0-.32-.15-.37a.42.42,0,0,0-.39.06Z" fill="#455a64" style="transform-origin:337.566px 152.359px"/>
<path class="animable" d="M330.41,157.58a.62.62,0,0,1-.32-.09.78.78,0,0,1-.35-.73,2.07,2.07,0,0,1,.95-1.65h0a.78.78,0,0,1,.8-.06.79.79,0,0,1,.36.73,2.08,2.08,0,0,1-1,1.65A1,1,0,0,1,330.41,157.58Zm.49-2.11a1.68,1.68,0,0,0-.75,1.29c0,.18.05.32.15.37a.42.42,0,0,0,.39-.06,1.67,1.67,0,0,0,.74-1.29.39.39,0,0,0-.14-.36.38.38,0,0,0-.39.05Z" fill="#455a64" style="transform-origin:330.794px 156.274px"/>
<path class="animable" d="M344,140a.66.66,0,0,1-.32-.08.79.79,0,0,1-.36-.73,2.08,2.08,0,0,1,.95-1.65.8.8,0,0,1,.81-.06.78.78,0,0,1,.35.73,2.06,2.06,0,0,1-.95,1.65A1,1,0,0,1,344,140Zm.76-2.19a.57.57,0,0,0-.28.09,1.67,1.67,0,0,0-.74,1.29.43.43,0,0,0,.14.37.42.42,0,0,0,.39-.06,1.68,1.68,0,0,0,.75-1.29.42.42,0,0,0-.15-.37A.2.2,0,0,0,344.73,137.82Z" fill="#455a64" style="transform-origin:344.376px 138.699px"/>
<path class="animable" d="M310.08,173.23a.73.73,0,0,1-.33-.08.79.79,0,0,1-.35-.73,2.08,2.08,0,0,1,1-1.65h0a.72.72,0,0,1,1.16.67,2.1,2.1,0,0,1-.95,1.65A1,1,0,0,1,310.08,173.23Zm.75-2.19a.54.54,0,0,0-.27.09h0a1.67,1.67,0,0,0-.74,1.29.39.39,0,0,0,.14.36.39.39,0,0,0,.39-.05,1.7,1.7,0,0,0,.74-1.29.41.41,0,0,0-.14-.37A.21.21,0,0,0,310.83,171Zm-.38-.09h0Z" fill="#455a64" style="transform-origin:310.482px 171.922px"/>
<path class="animable" d="M274.5,211.89a6.8,6.8,0,0,1-3.8-1.71c-2-1.44-4.08-2.92-7.59-.89l-.21-.36c3.75-2.17,6-.53,8.05.91,1.75,1.26,3.26,2.34,5.51,1s2.72-5.21,3.4-9.81c.89-6,1.9-12.83,6.76-15.63,4.42-2.56,6.2.52,7.92,3.5a11.25,11.25,0,0,0,2.79,3.66c1.25.85,2.7.75,4.55-.32,4.14-2.39,5.43-11.54,6.67-20.39s2.56-18.2,6.88-20.7a3.73,3.73,0,0,1,3.21-.49c2.25.84,3.5,4.5,4.72,8s2.4,7,4.46,7.75a3.27,3.27,0,0,0,2.86-.49c4-2.34,4.9-9.06,5.9-16.17,1.11-7.89,2.26-16.06,7.66-19.18l.21.36c-5.23,3-6.36,11.08-7.45,18.88-1,7.21-2,14-6.1,16.46a3.7,3.7,0,0,1-3.23.53c-2.24-.83-3.5-4.48-4.71-8s-2.4-7-4.47-7.78a3.29,3.29,0,0,0-2.85.46c-4.15,2.4-5.43,11.55-6.67,20.4s-2.56,18.2-6.89,20.7c-2,1.14-3.6,1.23-5,.29a11.42,11.42,0,0,1-2.93-3.79c-1.68-2.93-3.28-5.7-7.34-3.35-4.69,2.7-5.68,9.41-6.56,15.33-.7,4.71-1.3,8.77-3.61,10.11A4.33,4.33,0,0,1,274.5,211.89Z" fill="#455a64" style="transform-origin:303.675px 171.23px"/>
<path class="animable" d="M316,149.62c.73-.42,1.33-.08,1.33.77a2.92,2.92,0,0,1-1.33,2.28c-.73.43-1.32.08-1.32-.76A2.92,2.92,0,0,1,316,149.62Z" fill="#455a64" style="transform-origin:316.005px 151.147px"/>
<path class="animable" d="M288.42,171.16a.21.21,0,0,1-.18-.11.2.2,0,0,1,.08-.28L301.81,163l1.67-4.82a.17.17,0,0,1,.09-.11l6.78-3.91a.2.2,0,0,1,.28.07.21.21,0,0,1-.07.29l-6.71,3.87-1.67,4.82a.18.18,0,0,1-.1.11l-13.55,7.83A.23.23,0,0,1,288.42,171.16Z" fill="#455a64" style="transform-origin:299.437px 162.646px"/>
<path class="animable" d="M288.8,167.8a2,2,0,0,1,.9-1.5l10.06-5.8c.5-.29.9-.09.9.46a1.93,1.93,0,0,1-.9,1.5l-10.06,5.8C289.21,168.55,288.8,168.34,288.8,167.8Z" fill="#8c52ff" style="transform-origin:294.73px 164.379px"/>
</g>
</g>
</g>
<g class="animable" style="transform-origin:323.14px 76.0929px">
<g id="d" class="animable" style="transform-origin:323.14px 76.0929px">
<g class="animable" opacity=".2" style="transform-origin:321.045px 73.956px">
<path class="animable" d="M297.26,65.37l47.57-27.46c.77-.45,1.4-.08,1.4.81V80.13a3.06,3.06,0,0,1-1.4,2.42L297.26,110c-.78.45-1.4.09-1.4-.8V67.79A3.08,3.08,0,0,1,297.26,65.37Z" style="transform-origin:321.045px 73.956px"/>
</g>
<g id="freepik--speach-bubble--inject-49" class="animable" style="transform-origin:324.985px 79.215px">
<path class="animable" d="m342.85 44.32-41.76 24.09a3.4 3.4 0 0 0-1.54 2.67v38.7a3.36 3.36 0 0 0 1.55 2.66l2.9 1.66a3.45 3.45 0 0 0 3.1 0l41.78-24.1a3.4 3.4 0 0 0 1.54-2.67v-38.7a3.35 3.35 0 0 0-1.55-2.63l-2.93-1.66a3.43 3.43 0 0 0-3.09-0.02z" fill="#8c52ff" style="transform-origin:324.985px 79.215px"/>
<path class="animable" d="m307.13 114.09a3.58 3.58 0 0 1-3.1 0l-2.93-1.67a3.35 3.35 0 0 1-1.55-2.66v-38.68a3.17 3.17 0 0 1 0.45-1.58l6 3.5a3 3 0 0 0-0.46 1.51v38.69c0.04 0.9 0.68 1.41 1.59 0.89z" opacity=".2" style="transform-origin:303.34px 91.9715px"/>
<g class="animable" opacity=".2" style="transform-origin:325.2px 58.488px">
<path class="animable" d="M350.4,48.35c-.12-.78-.75-1.06-1.52-.62L307.13,71.82A3.13,3.13,0,0,0,306,73l-6-3.48a3.08,3.08,0,0,1,1.06-1.09l41.76-24.09a3.46,3.46,0,0,1,3.09,0L348.87,46A3.36,3.36,0,0,1,350.4,48.35Z" fill="#fff" style="transform-origin:325.2px 58.488px"/>
</g>
<path class="animable" d="m348.88 47.74-41.75 24.08a3.4 3.4 0 0 0-1.55 2.67v38.71c0 1 0.69 1.38 1.55 0.89l41.75-24.09a3.4 3.4 0 0 0 1.54-2.67v-38.7c0-0.99-0.69-1.39-1.54-0.89z" fill="#fff" style="transform-origin:328px 80.9137px"/>
<path class="animable" d="M349.19,49V87.33a2.23,2.23,0,0,1-.92,1.6l-41.45,23.91V74.49a2.23,2.23,0,0,1,.92-1.6L349.19,49m.38-1.45a1.33,1.33,0,0,0-.69.21L307.13,71.82a3.4,3.4,0,0,0-1.55,2.67V113.2c0,.7.35,1.1.86,1.1a1.46,1.46,0,0,0,.69-.21L348.88,90a3.4,3.4,0,0,0,1.54-2.67V48.63c0-.7-.34-1.1-.85-1.1Z" fill="#8c52ff" style="transform-origin:328px 80.915px"/>
</g>
<g class="animable" style="transform-origin:328.28px 80.68px">
<polygon class="animable" points="339.01 89.25 339.01 62.42 336.61 61.04 336.61 87.87" fill="#8c52ff" style="transform-origin:337.81px 75.145px"/>
<polygon class="animable" points="339.01 89.25 339.01 62.42 336.61 61.04 336.61 87.87" opacity=".2" style="transform-origin:337.81px 75.145px"/>
<polygon class="animable" points="339.01 89.25 345.96 85.24 345.96 58.41 339.01 62.42" fill="#8c52ff" style="transform-origin:342.485px 73.83px"/>
<polygon class="animable" points="345.96 58.41 343.56 57.03 336.61 61.04 339.01 62.42" fill="#8c52ff" style="transform-origin:341.285px 59.725px"/>
<polygon class="animable" points="345.96 58.41 343.56 57.03 336.61 61.04 339.01 62.42" fill="#fff" opacity=".25" style="transform-origin:341.285px 59.725px"/>
<path class="animable" d="M346,58.41,339,62.32,336.61,61l2.3,1.54c-.05.78,0,25.87.1,26.67.1-.8.15-25.94.1-26.7Z" fill="#fff" opacity=".3" style="transform-origin:341.305px 73.81px"/>
<polygon class="animable" points="325.98 96.78 325.98 75.22 323.59 73.84 323.59 95.39" fill="#8c52ff" style="transform-origin:324.785px 85.31px"/>
<polygon class="animable" points="325.98 96.78 325.98 75.22 323.59 73.84 323.59 95.39" fill="#fff" opacity=".1" style="transform-origin:324.785px 85.31px"/>
<polygon class="animable" points="325.98 96.78 332.93 92.76 332.93 71.21 325.98 75.22" fill="#8c52ff" style="transform-origin:329.455px 83.995px"/>
<polygon class="animable" points="325.98 96.78 332.93 92.76 332.93 71.21 325.98 75.22" fill="#fff" opacity=".3" style="transform-origin:329.455px 83.995px"/>
<polygon class="animable" points="332.93 71.21 330.54 69.83 323.59 73.84 325.98 75.22" fill="#8c52ff" style="transform-origin:328.26px 72.525px"/>
<polygon class="animable" points="332.93 71.21 330.54 69.83 323.59 73.84 325.98 75.22" fill="#fff" opacity=".55" style="transform-origin:328.26px 72.525px"/>
<path class="animable" d="M326.07,75.28l6.86-4.07L326,75.12c-.76-.43-2.39-1.28-2.39-1.28s1.53,1,2.3,1.43c0,.82,0,20.68.09,21.5C326,96,326.1,76.06,326.07,75.28Z" fill="#fff" opacity=".3" style="transform-origin:328.27px 83.99px"/>
<polygon class="animable" points="312.95 104.3 312.95 86.21 310.56 84.83 310.56 102.91" fill="#8c52ff" style="transform-origin:311.755px 94.565px"/>
<polygon class="animable" points="312.95 104.3 312.95 86.21 310.56 84.83 310.56 102.91" opacity=".45" style="transform-origin:311.755px 94.565px"/>
<polygon class="animable" points="312.95 104.3 319.9 100.28 319.9 82.2 312.95 86.21" fill="#8c52ff" style="transform-origin:316.425px 93.25px"/>
<polygon class="animable" points="312.95 104.3 319.9 100.28 319.9 82.2 312.95 86.21" opacity=".3" style="transform-origin:316.425px 93.25px"/>
<polygon class="animable" points="319.9 82.2 317.51 80.81 310.56 84.83 312.95 86.21" fill="#8c52ff" style="transform-origin:315.23px 83.51px"/>
<polygon class="animable" points="319.9 82.2 317.51 80.81 310.56 84.83 312.95 86.21" opacity=".15" style="transform-origin:315.23px 83.51px"/>
<path class="animable" d="M319.9,82.2,313,86.1l-2.39-1.27,2.3,1.5s0,17.47.09,18c.11-.5.11-18,.11-18Z" fill="#fff" opacity=".3" style="transform-origin:315.255px 93.265px"/>
</g>
</g>
</g>
<g class="animable" style="transform-origin:191.345px 300.55px">
<g class="animable" style="transform-origin:191.345px 300.55px">
<g class="animable" opacity=".2" style="transform-origin:189.25px 298.398px">
<path class="animable" d="M149.34,256.42l79.82-46.05c.77-.44,1.4-.08,1.4.81V338a3.09,3.09,0,0,1-1.4,2.42l-79.82,46c-.78.45-1.4.09-1.4-.81V258.84A3.08,3.08,0,0,1,149.34,256.42Z" style="transform-origin:189.25px 298.398px"/>
</g>
<path class="animable" d="m227.17 216.78-74 42.68a3.4 3.4 0 0 0-1.54 2.67v124.1a3.34 3.34 0 0 0 1.55 2.65l2.93 1.67a3.45 3.45 0 0 0 3.1 0l74-42.67a3.41 3.41 0 0 0 1.54-2.67v-124.12a3.36 3.36 0 0 0-1.55-2.66l-2.94-1.66a3.43 3.43 0 0 0-3.09 0.01z" fill="#8c52ff" style="transform-origin:193.19px 303.663px"/>
<path class="animable" d="m159.21 390.53a3.52 3.52 0 0 1-3.1 0l-2.93-1.67a3.34 3.34 0 0 1-1.55-2.65v-124.08a3.17 3.17 0 0 1 0.49-1.58l6 3.47a3 3 0 0 0-0.46 1.52v124.1c0 0.9 0.64 1.42 1.55 0.89z" opacity=".2" style="transform-origin:155.42px 325.72px"/>
<g class="animable" opacity=".2" style="transform-origin:193.425px 240.216px">
<path class="animable" d="m234.73 220.81c-0.12-0.78-0.75-1.06-1.52-0.61l-74 42.67a3.18 3.18 0 0 0-1.09 1.15l-6-3.47a3.08 3.08 0 0 1 1.06-1.09l74-42.68a3.43 3.43 0 0 1 3.09 0l2.93 1.66a3.4 3.4 0 0 1 1.53 2.37z" fill="#fff" style="transform-origin:193.425px 240.216px"/>
</g>
<path class="animable" d="m233.21 220.2-74 42.67a3.4 3.4 0 0 0-1.55 2.67v124.1c0 1 0.69 1.39 1.55 0.89l74-42.67a3.41 3.41 0 0 0 1.54-2.67v-124.1c0-0.99-0.69-1.38-1.54-0.89z" fill="#fff" style="transform-origin:196.205px 305.368px"/>
<path class="animable" d="M233.52,221.44V345.19a2.21,2.21,0,0,1-.93,1.6l-73.69,42.5V265.54a2.23,2.23,0,0,1,.92-1.6l73.7-42.5m.38-1.45a1.33,1.33,0,0,0-.69.21l-74,42.67a3.4,3.4,0,0,0-1.55,2.67v124.1c0,.7.35,1.11.86,1.11a1.38,1.38,0,0,0,.69-.22l74-42.67a3.41,3.41,0,0,0,1.54-2.67V221.09c0-.7-.35-1.1-.85-1.1Z" fill="#8c52ff" style="transform-origin:196.205px 305.37px"/>
<path class="animable" d="m182.91 268.26v10.65c-4.6 2.66-8.33 9.79-8.33 15.93l-8 4.61c0.01-12.02 7.32-25.99 16.33-31.19z" fill="#8c52ff" style="transform-origin:174.745px 283.855px"/>
<path class="animable" d="m176.92 301.21-5.75 10.72c-3-2.42-4.58-6.71-4.58-12.48l8-4.61c-0.01 3 0.88 5.16 2.33 6.37z" fill="#8c52ff" style="transform-origin:171.755px 303.385px"/>
<g class="animable" opacity=".3" style="transform-origin:171.755px 303.385px">
<path class="animable" d="m176.92 301.21-5.75 10.72c-3-2.42-4.58-6.71-4.58-12.48l8-4.61c-0.01 3 0.88 5.16 2.33 6.37z" style="transform-origin:171.755px 303.385px"/>
</g>
<path class="animable" d="m199.24 280.6c0 12-7.31 26-16.33 31.2-4.69 2.7-8.48 2.74-11.74 0.13l5.75-10.72c1.51 1.22 3.64 1.29 6-0.07 4.61-2.66 8.34-9.79 8.34-15.93s-3.73-9-8.34-6.3v-10.65c9.01-5.21 16.32 0.32 16.32 12.34z" fill="#8c52ff" style="transform-origin:185.205px 290.078px"/>
<g class="animable" opacity=".4" style="transform-origin:185.205px 290.078px">
<path class="animable" d="m199.24 280.6c0 12-7.31 26-16.33 31.2-4.69 2.7-8.48 2.74-11.74 0.13l5.75-10.72c1.51 1.22 3.64 1.29 6-0.07 4.61-2.66 8.34-9.79 8.34-15.93s-3.73-9-8.34-6.3v-10.65c9.01-5.21 16.32 0.32 16.32 12.34z" fill="#fff" style="transform-origin:185.205px 290.078px"/>
</g>
<path class="animable" d="m209.28 261.64-4.75 2.75a0.21 0.21 0 0 0-0.1 0.17v5.49c0 0.06 0 0.09 0.1 0.06l4.75-2.75a0.19 0.19 0 0 0 0.1-0.16v-5.5c0-0.06-0.04-0.09-0.1-0.06z" fill="#8c52ff" style="transform-origin:206.905px 265.875px"/>
<path class="animable" d="m209.28 261.64-4.75 2.75a0.21 0.21 0 0 0-0.1 0.17v5.49c0 0.06 0 0.09 0.1 0.06l4.75-2.75a0.19 0.19 0 0 0 0.1-0.16v-5.5c0-0.06-0.04-0.09-0.1-0.06z" fill="#fff" opacity=".4" style="transform-origin:206.905px 265.875px"/>
<path class="animable" d="M212.8,261.58a.38.38,0,0,1-.31-.18.36.36,0,0,1,.13-.48L226,253.26a.35.35,0,1,1,.35.61L213,261.53A.34.34,0,0,1,212.8,261.58Z" fill="#455a64" style="transform-origin:219.486px 257.397px"/>
<path class="animable" d="M212.8,264.61a.35.35,0,0,1-.18-.66L226,256.3a.35.35,0,0,1,.48.13.35.35,0,0,1-.13.48L213,264.56A.34.34,0,0,1,212.8,264.61Z" fill="#455a64" style="transform-origin:219.479px 260.432px"/>
<path class="animable" d="m209.28 272.88-4.75 2.75a0.21 0.21 0 0 0-0.1 0.17v5.49c0 0.06 0 0.09 0.1 0.06l4.75-2.75a0.19 0.19 0 0 0 0.1-0.16v-5.5c0-0.06-0.04-0.09-0.1-0.06z" fill="#8c52ff" style="transform-origin:206.905px 277.115px"/>
<path class="animable" d="M212.8,272.82a.38.38,0,0,1-.31-.18.36.36,0,0,1,.13-.48L226,264.5a.35.35,0,0,1,.48.13.35.35,0,0,1-.13.48L213,272.77A.34.34,0,0,1,212.8,272.82Z" fill="#455a64" style="transform-origin:219.487px 268.637px"/>
<path class="animable" d="M212.8,275.85a.35.35,0,0,1-.18-.66L226,267.54a.35.35,0,0,1,.48.13.35.35,0,0,1-.13.48L213,275.8A.34.34,0,0,1,212.8,275.85Z" fill="#455a64" style="transform-origin:219.479px 271.672px"/>
<path class="animable" d="m209.28 284.12-4.75 2.75a0.21 0.21 0 0 0-0.1 0.17v5.49c0 0.06 0 0.09 0.1 0.06l4.75-2.75a0.19 0.19 0 0 0 0.1-0.16v-5.5c0-0.06-0.04-0.09-0.1-0.06z" fill="#8c52ff" style="transform-origin:206.905px 288.355px"/>
<path class="animable" d="m209.28 284.12-4.75 2.75a0.21 0.21 0 0 0-0.1 0.17v5.49c0 0.06 0 0.09 0.1 0.06l4.75-2.75a0.19 0.19 0 0 0 0.1-0.16v-5.5c0-0.06-0.04-0.09-0.1-0.06z" opacity=".3" style="transform-origin:206.905px 288.355px"/>
<path class="animable" d="M212.8,284.06a.38.38,0,0,1-.31-.18.35.35,0,0,1,.13-.48L226,275.74a.36.36,0,0,1,.48.13.35.35,0,0,1-.13.48L213,284A.34.34,0,0,1,212.8,284.06Z" fill="#455a64" style="transform-origin:219.485px 279.878px"/>
<path class="animable" d="M212.8,287.09a.38.38,0,0,1-.31-.18.36.36,0,0,1,.13-.48L226,278.78a.35.35,0,0,1,.48.13.35.35,0,0,1-.13.48L213,287A.34.34,0,0,1,212.8,287.09Z" fill="#455a64" style="transform-origin:219.487px 282.911px"/>
<path class="animable" d="M166.59,335.11a.37.37,0,0,1-.31-.17.35.35,0,0,1,.13-.48L226,300.12a.37.37,0,0,1,.48.13.36.36,0,0,1-.13.49l-59.53,34.33A.39.39,0,0,1,166.59,335.11Z" fill="#455a64" style="transform-origin:196.38px 317.596px"/>
<path class="animable" d="M166.59,341.27a.38.38,0,0,1-.31-.18.35.35,0,0,1,.13-.48L226,306.28a.35.35,0,1,1,.35.61l-59.53,34.33A.41.41,0,0,1,166.59,341.27Z" fill="#455a64" style="transform-origin:196.38px 323.752px"/>
<path class="animable" d="M166.59,347.42a.35.35,0,0,1-.18-.66L226,312.43a.35.35,0,1,1,.35.61l-59.53,34.33A.41.41,0,0,1,166.59,347.42Z" fill="#455a64" style="transform-origin:196.374px 329.902px"/>
<path class="animable" d="M166.59,353.57a.35.35,0,0,1-.18-.66L226,318.58a.36.36,0,0,1,.48.13.35.35,0,0,1-.13.48l-59.53,34.33A.41.41,0,0,1,166.59,353.57Z" fill="#455a64" style="transform-origin:196.374px 336.054px"/>
<path class="animable" d="M166.59,359.72a.35.35,0,0,1-.18-.66L226,324.73a.36.36,0,0,1,.48.13.35.35,0,0,1-.13.48l-59.53,34.34A.39.39,0,0,1,166.59,359.72Z" fill="#455a64" style="transform-origin:196.374px 342.205px"/>
<path class="animable" d="M166.59,365.87a.37.37,0,0,1-.31-.17.35.35,0,0,1,.13-.48L226,330.88a.37.37,0,0,1,.48.13.36.36,0,0,1-.13.49l-59.53,34.33A.39.39,0,0,1,166.59,365.87Z" fill="#455a64" style="transform-origin:196.38px 348.356px"/>
</g>
</g>
<g class="animable" style="transform-origin:237.585px 125.49px">
<g id="a" class="animable" style="transform-origin:264.585px 109.907px">
<g class="animable" opacity=".2" style="transform-origin:262.49px 107.774px">
<path class="animable" d="M242.81,96.82l39.36-22.73c.77-.45,1.4-.09,1.4.8v41.42a3.1,3.1,0,0,1-1.4,2.42l-39.36,22.73c-.77.45-1.4.08-1.4-.81V99.24A3.09,3.09,0,0,1,242.81,96.82Z" style="transform-origin:262.49px 107.774px"/>
</g>
<g id="e" class="animable" style="transform-origin:266.43px 113.02px">
<path class="animable" d="m280.18 80.5-33.54 19.35a3.41 3.41 0 0 0-1.54 2.67v38.71a3.34 3.34 0 0 0 1.55 2.65l2.94 1.67a3.43 3.43 0 0 0 3.09 0l33.54-19.35a3.41 3.41 0 0 0 1.54-2.67v-38.73a3.34 3.34 0 0 0-1.55-2.65l-2.94-1.67a3.43 3.43 0 0 0-3.09 0.02z" fill="#8c52ff" style="transform-origin:266.43px 113.02px"/>
<path class="animable" d="m252.68 145.53a3.52 3.52 0 0 1-3.1 0l-2.93-1.67a3.37 3.37 0 0 1-1.55-2.65v-38.69a3.17 3.17 0 0 1 0.49-1.57l6 3.47a3.13 3.13 0 0 0-0.45 1.52v38.7c0 0.9 0.63 1.42 1.54 0.89z" opacity=".2" style="transform-origin:248.89px 123.42px"/>
<g class="animable" opacity=".2" style="transform-origin:266.665px 92.2712px">
<path class="animable" d="M287.74,84.52c-.12-.77-.75-1-1.52-.61l-33.54,19.36a3.18,3.18,0,0,0-1.09,1.15l-6-3.47a3.2,3.2,0,0,1,1.06-1.1l33.55-19.36a3.43,3.43,0,0,1,3.09,0l2.93,1.66A3.4,3.4,0,0,1,287.74,84.52Z" fill="#fff" style="transform-origin:266.665px 92.2712px"/>
</g>
<path class="animable" d="m286.22 83.91-33.54 19.36a3.4 3.4 0 0 0-1.54 2.67v38.7c0 1 0.69 1.39 1.54 0.89l33.54-19.35a3.41 3.41 0 0 0 1.54-2.67v-38.71c0-0.98-0.69-1.38-1.54-0.89z" fill="#fff" style="transform-origin:269.45px 114.724px"/>
<path class="animable" d="M286.53,85.16v38.35a2.21,2.21,0,0,1-.93,1.6l-33.23,19.18V105.94a2.21,2.21,0,0,1,.93-1.6l33.23-19.18m.38-1.46a1.43,1.43,0,0,0-.69.21l-33.54,19.36a3.4,3.4,0,0,0-1.54,2.67v38.7c0,.7.34,1.1.85,1.1a1.33,1.33,0,0,0,.69-.21l33.54-19.35a3.41,3.41,0,0,0,1.54-2.67V84.8c0-.7-.35-1.1-.85-1.1Z" fill="#8c52ff" style="transform-origin:269.45px 114.72px"/>
</g>
<path class="animable" d="M260.21,135.33l21.47-12.39-.36-3.09a5,5,0,0,0-2.12-4l-3-1.73a4.06,4.06,0,0,0-4.14.34l-8.23,4.75c-3.15,1.82-5.82,6.46-6.27,10.87l-.35,3.5Z" fill="#8c52ff" style="transform-origin:269.445px 124.518px"/>
<path class="animable" d="M275.59,102.72c1.06.61,1.71,1.92,1.71,3.79a12.92,12.92,0,0,1-5.84,10.11c-1.62.94-3.08,1-4.13.41l-2.94-1.69c-1.05-.61-1.71-1.92-1.71-3.78a12.92,12.92,0,0,1,5.84-10.12c1.62-.93,3.08-1,4.13-.41Z" fill="#8c52ff" style="transform-origin:269.99px 109.032px"/>
<path class="animable" d="M281.32,119.85a5,5,0,0,0-2.12-4,4,4,0,0,0-4.14.33L266.82,121c-3.15,1.82-5.82,6.46-6.26,10.88l-.35,3.49,21.47-12.39Zm-14-2.82c1.05.61,2.51.53,4.13-.41a12.92,12.92,0,0,0,5.84-10.11c0-1.87-.65-3.18-1.71-3.79s-2.52-.52-4.13.41a12.91,12.91,0,0,0-5.84,10.12C265.62,115.11,266.27,116.42,267.33,117Z" fill="#8c52ff" style="transform-origin:270.945px 118.851px"/>
<path class="animable" d="M281.32,119.85a5,5,0,0,0-2.12-4,4,4,0,0,0-4.14.33L266.82,121c-3.15,1.82-5.82,6.46-6.26,10.88l-.35,3.49,21.47-12.39Zm-14-2.82c1.05.61,2.51.53,4.13-.41a12.92,12.92,0,0,0,5.84-10.11c0-1.87-.65-3.18-1.71-3.79s-2.52-.52-4.13.41a12.91,12.91,0,0,0-5.84,10.12C265.62,115.11,266.27,116.42,267.33,117Z" fill="#fff" opacity=".5" style="transform-origin:270.945px 118.851px"/>
</g>
<g class="animable" style="transform-origin:210.585px 141.08px">
<g class="animable" opacity=".2" style="transform-origin:208.485px 138.954px">
<path class="animable" d="M188.81,128l39.36-22.73c.77-.45,1.39-.09,1.39.8v41.41a3.1,3.1,0,0,1-1.39,2.43l-39.36,22.73c-.78.45-1.4.08-1.4-.81V130.41A3.06,3.06,0,0,1,188.81,128Z" style="transform-origin:208.485px 138.954px"/>
</g>
<g class="animable" style="transform-origin:212.43px 144.188px">
<path class="animable" d="m226.18 111.66-33.54 19.34a3.41 3.41 0 0 0-1.54 2.67v38.73a3.34 3.34 0 0 0 1.55 2.65l2.93 1.67a3.48 3.48 0 0 0 3.1 0l33.54-19.35a3.41 3.41 0 0 0 1.54-2.67v-38.7a3.37 3.37 0 0 0-1.55-2.65l-2.94-1.67a3.46 3.46 0 0 0-3.09-0.02z" fill="#8c52ff" style="transform-origin:212.43px 144.195px"/>
<path class="animable" d="m198.68 176.7a3.52 3.52 0 0 1-3.1 0l-2.93-1.67a3.34 3.34 0 0 1-1.55-2.65v-38.69a3.17 3.17 0 0 1 0.49-1.57l6 3.47a3 3 0 0 0-0.46 1.52v38.7c0 0.9 0.64 1.42 1.55 0.89z" opacity=".2" style="transform-origin:194.89px 154.59px"/>
<g class="animable" opacity=".2" style="transform-origin:212.665px 123.441px">
<path class="animable" d="m233.74 115.69c-0.12-0.78-0.76-1-1.53-0.61l-33.53 19.36a3.18 3.18 0 0 0-1.09 1.15l-6-3.47a3.12 3.12 0 0 1 1.06-1.1l33.54-19.36a3.43 3.43 0 0 1 3.09 0l2.94 1.66a3.43 3.43 0 0 1 1.52 2.37z" fill="#fff" style="transform-origin:212.665px 123.441px"/>
</g>
<path class="animable" d="m232.22 115.08-33.54 19.36a3.38 3.38 0 0 0-1.55 2.67v38.7c0 1 0.69 1.38 1.55 0.89l33.54-19.35a3.41 3.41 0 0 0 1.54-2.67v-38.68c0-1-0.69-1.41-1.54-0.92z" fill="#fff" style="transform-origin:215.445px 145.893px"/>
<path class="animable" d="M232.52,116.33v38.35a2.2,2.2,0,0,1-.92,1.6l-33.23,19.18V137.11a2.21,2.21,0,0,1,.92-1.6l33.23-19.18m.38-1.46a1.4,1.4,0,0,0-.68.21l-33.54,19.36a3.38,3.38,0,0,0-1.55,2.67v38.7c0,.7.35,1.1.86,1.1a1.36,1.36,0,0,0,.69-.21l33.54-19.35a3.41,3.41,0,0,0,1.54-2.67V116c0-.7-.35-1.1-.86-1.1Z" fill="#8c52ff" style="transform-origin:215.445px 145.89px"/>
</g>
<path class="animable" d="M206.2,166.57l21.47-12.4-.35-3.09a5,5,0,0,0-2.12-4l-3-1.73a4.06,4.06,0,0,0-4.14.34l-8.23,4.75c-3.16,1.82-5.83,6.46-6.27,10.87l-.35,3.5Z" fill="#263238" style="transform-origin:215.44px 155.753px"/>
<path class="animable" d="M227.32,151.08a5,5,0,0,0-2.12-4,4.05,4.05,0,0,0-4.15.33l-8.23,4.75c-3.15,1.83-5.82,6.46-6.27,10.88l-.35,3.5,21.47-12.4Z" fill="#455a64" style="transform-origin:216.935px 156.599px"/>
<path class="animable" d="M221.58,134c1.06.61,1.72,1.92,1.72,3.79a12.9,12.9,0,0,1-5.85,10.11c-1.61.94-3.07,1-4.13.41l-2.93-1.69c-1.06-.61-1.71-1.92-1.71-3.78a12.89,12.89,0,0,1,5.84-10.12c1.61-.93,3.07-1,4.13-.41Z" fill="#263238" style="transform-origin:215.99px 140.312px"/>
<path class="animable" d="M217.45,147.85c-1.61.94-3.07,1-4.13.41s-1.71-1.92-1.71-3.78a13,13,0,0,1,5.84-10.12c1.62-.93,3.08-1,4.13-.41s1.72,1.92,1.72,3.79A12.9,12.9,0,0,1,217.45,147.85Z" fill="#455a64" style="transform-origin:217.455px 141.107px"/>
</g>
</g>
<g class="animable" style="transform-origin:119.88px 213.851px">
<g class="animable" style="transform-origin:119.88px 213.851px">
<g class="animable" opacity=".2" style="transform-origin:113.78px 210.087px">
<path class="animable" d="M166.21,144.25v71.22a5.84,5.84,0,0,1-2.65,4.59L64,277.55a1.74,1.74,0,0,1-.88.25,1.33,1.33,0,0,1-.34-.05.81.81,0,0,1-.22-.07,1.55,1.55,0,0,1-.24-.13,2.15,2.15,0,0,1-.69-.88,3.16,3.16,0,0,1-.28-1.34V204.75A5.89,5.89,0,0,1,64,200.16l99.58-57.44a1.91,1.91,0,0,1,1.78-.22.76.76,0,0,1,.23.13h0a.77.77,0,0,1,.18.18.73.73,0,0,1,.08.09.5.5,0,0,1,.08.14,1.5,1.5,0,0,1,.16.34.86.86,0,0,1,.06.23.07.07,0,0,1,0,.06,1.5,1.5,0,0,1,0,.24C166.2,144,166.21,144.14,166.21,144.25Z" style="transform-origin:113.78px 210.087px"/>
</g>
<path class="animable" d="M178.41,151.77V223a5.84,5.84,0,0,1-2.65,4.58L76.17,285.07a1.68,1.68,0,0,1-.87.25,1.86,1.86,0,0,1-.34,0l-.23-.08-.23-.12a2.37,2.37,0,0,1-.7-.89,3.32,3.32,0,0,1-.28-1.34V212.27a5.86,5.86,0,0,1,2.65-4.58l99.59-57.45a1.9,1.9,0,0,1,1.78-.22,1,1,0,0,1,.22.13h0a1,1,0,0,1,.17.18.23.23,0,0,1,.08.09.55.55,0,0,1,.09.14,1.5,1.5,0,0,1,.16.34,1.4,1.4,0,0,1,.06.24.07.07,0,0,1,0,0,1.72,1.72,0,0,1,0,.24C178.4,151.55,178.41,151.66,178.41,151.77Z" fill="#fff" style="transform-origin:125.965px 217.61px"/>
<path class="animable" d="M176.93,150.83a.46.46,0,0,1,.21,0l.05,0h0l.07.09h0l.06.09h0l.1.29v0l0,.05h0v.05a2,2,0,0,1,0,.25V223a4.9,4.9,0,0,1-2.18,3.77L75.71,284.25a.77.77,0,0,1-.41.13h0l-.15,0,0,0h0l-.11-.05a2,2,0,0,1-.35-.51,2.33,2.33,0,0,1-.18-.92V212.27a5,5,0,0,1,2.18-3.77l99.58-57.44a1.52,1.52,0,0,1,.71-.23m0-.94a2.39,2.39,0,0,0-1.17.35L76.17,207.69a5.86,5.86,0,0,0-2.65,4.58v70.58a3.32,3.32,0,0,0,.28,1.34,2.37,2.37,0,0,0,.7.89l.23.12.23.08a1.86,1.86,0,0,0,.34,0h0a1.79,1.79,0,0,0,.84-.25l99.59-57.49a5.84,5.84,0,0,0,2.65-4.58V151.77c0-.11,0-.22,0-.33a1.72,1.72,0,0,0,0-.24.07.07,0,0,0,0,0,1.4,1.4,0,0,0-.06-.24,1.5,1.5,0,0,0-.16-.34.55.55,0,0,0-.09-.14.23.23,0,0,0-.08-.09,1,1,0,0,0-.17-.18h0a1,1,0,0,0-.22-.13,1.39,1.39,0,0,0-.61-.13Z" fill="#e0e0e0" style="transform-origin:125.952px 217.589px"/>
<path class="animable" d="m177.54 150a1.9 1.9 0 0 0-1.78 0.22l-99.59 57.47a5.86 5.86 0 0 0-2.65 4.58v8.65l-6.79-3.92v-8.59a5.83 5.83 0 0 1 2.64-4.58l99.63-57.43a1.84 1.84 0 0 1 1.92-0.16c0.44 0.29 6.08 3.48 6.62 3.76z" fill="#37474f" style="transform-origin:122.135px 183.481px"/>
<path class="animable" d="m178.4 151.75c0-1.67-1.19-2.34-2.64-1.5l-99.59 57.44a5.83 5.83 0 0 0-2.64 4.58v8.66l104.87-60.49z" fill="#455a64" style="transform-origin:125.965px 185.409px"/>
<path class="animable" d="M66.73,217v-8.6a5.46,5.46,0,0,1,.8-2.65l6.79,3.87a5.41,5.41,0,0,0-.79,2.63v8.66Z" fill="#263238" style="transform-origin:70.525px 213.33px"/>
<path class="animable" d="m163.39 161.05a3.92 3.92 0 0 0-1.5 3.16c0 1.27 0.67 1.92 1.5 1.44a4 4 0 0 0 1.49-3.17c0-1.27-0.67-1.91-1.49-1.43z" fill="#fafafa" style="transform-origin:163.385px 163.349px"/>
<path class="animable" d="m168.77 157.93a4 4 0 0 0-1.5 3.17c0 1.27 0.67 1.91 1.5 1.44a4 4 0 0 0 1.49-3.17c0-1.27-0.67-1.91-1.49-1.44z" fill="#fafafa" style="transform-origin:168.765px 160.235px"/>
<path class="animable" d="m174.15 154.82a4 4 0 0 0-1.49 3.16c0 1.28 0.67 1.92 1.49 1.44a3.92 3.92 0 0 0 1.5-3.16c0-1.26-0.65-1.92-1.5-1.44z" fill="#fafafa" style="transform-origin:174.155px 157.121px"/>
<path class="animable" d="M74.5,285.08l-.33-.19-6.33-3.64a2.37,2.37,0,0,1-.81-.9,3.31,3.31,0,0,1-.3-1.4V217l6.79,3.91v61.93a3.69,3.69,0,0,0,.28,1.34A2.35,2.35,0,0,0,74.5,285.08Z" fill="#e0e0e0" style="transform-origin:70.615px 251.04px"/>
<polygon class="animable" points="173.2 192.71 78.73 247.22 78.73 223.18 173.2 168.68" fill="#e0e0e0" style="transform-origin:125.965px 207.95px"/>
<polygon class="animable" points="143.35 239.2 78.73 276.44 78.73 252.41 143.35 215.17" fill="#e0e0e0" style="transform-origin:111.04px 245.805px"/>
<polygon class="animable" points="173.2 221.73 148.85 235.76 148.85 211.73 173.2 197.7" fill="#e0e0e0" style="transform-origin:161.025px 216.73px"/>
</g>
</g>
<g class="animable" style="transform-origin:110.17px 83.515px">
<g class="animable" style="transform-origin:110.17px 83.515px">
<path class="animable" d="M86.42,57.8V101a2.41,2.41,0,0,1-1,1.78L40.12,128.91V85.73a2.41,2.41,0,0,1,1-1.78L86.42,57.8m.32-1.41a1.48,1.48,0,0,0-.73.22L40.53,82.88a3.66,3.66,0,0,0-1.64,2.85v43.42c0,.75.37,1.18.91,1.18a1.51,1.51,0,0,0,.73-.23L86,103.83A3.65,3.65,0,0,0,87.65,101V57.56c0-.74-.37-1.17-.91-1.17Z" fill="#455a64" style="transform-origin:63.27px 93.36px"/>
<path class="animable" d="m173.35 25.38-117 67.55a3.63 3.63 0 0 0-1.65 2.85v41.28a3.58 3.58 0 0 0 1.66 2.83l3.13 1.77a3.66 3.66 0 0 0 3.29 0l117-67.56a3.61 3.61 0 0 0 1.65-2.84v-41.26a3.56 3.56 0 0 0-1.66-2.83l-3.13-1.78a3.65 3.65 0 0 0-3.29-0.01z" fill="#8c52ff" style="transform-origin:118.065px 83.5219px"/>
<path class="animable" d="m173.35 25.38-117 67.55a3.63 3.63 0 0 0-1.65 2.85v41.28a3.58 3.58 0 0 0 1.66 2.83l3.13 1.77a3.66 3.66 0 0 0 3.29 0l117-67.56a3.61 3.61 0 0 0 1.65-2.84v-41.26a3.56 3.56 0 0 0-1.66-2.83l-3.13-1.78a3.65 3.65 0 0 0-3.29-0.01z" fill="#fff" opacity=".8" style="transform-origin:118.065px 83.5219px"/>
<path class="animable" d="m62.8 141.65a3.78 3.78 0 0 1-3.3 0l-3.12-1.79a3.56 3.56 0 0 1-1.66-2.82v-41.26a3.38 3.38 0 0 1 0.53-1.68l6.4 3.7a3.24 3.24 0 0 0-0.49 1.62v41.28c0 0.96 0.68 1.51 1.64 0.95z" fill="#8c52ff" opacity=".5" style="transform-origin:58.76px 118.065px"/>
<path class="animable" d="M181.41,29.67c-.13-.83-.8-1.12-1.62-.65l-117,67.55a3.36,3.36,0,0,0-1.16,1.23l-6.41-3.7a3.26,3.26,0,0,1,1.13-1.17l117-67.56a3.66,3.66,0,0,1,3.29,0l3.13,1.77A3.61,3.61,0,0,1,181.41,29.67Z" fill="#8c52ff" opacity=".3" style="transform-origin:118.315px 61.3898px"/>
<path class="animable" d="m179.79 29-116.99 67.57a3.66 3.66 0 0 0-1.64 2.85v41.28c0 1.05 0.74 1.47 1.64 1l117-67.56a3.61 3.61 0 0 0 1.65-2.84v-41.3c-0.01-1.08-0.75-1.51-1.66-1z" fill="#8c52ff" style="transform-origin:121.305px 85.3388px"/>
<path class="animable" d="m179.79 29-116.99 67.57a3.66 3.66 0 0 0-1.64 2.85v41.28c0 1.05 0.74 1.47 1.64 1l117-67.56a3.61 3.61 0 0 0 1.65-2.84v-41.3c-0.01-1.08-0.75-1.51-1.66-1z" fill="#fff" opacity=".8" style="transform-origin:121.305px 85.3388px"/>
<g class="animable" opacity=".3" style="transform-origin:121.305px 85.33px">
<path class="animable" d="M180,30.51V71.25a2.25,2.25,0,0,1-.93,1.62L62.57,140.15V99.42a2.24,2.24,0,0,1,.94-1.62L180,30.51m.51-1.72a1.57,1.57,0,0,0-.74.23L62.8,96.57a3.66,3.66,0,0,0-1.64,2.85V140.7c0,.74.37,1.17.91,1.17a1.48,1.48,0,0,0,.73-.22l117-67.56a3.61,3.61,0,0,0,1.65-2.84V30c0-.75-.37-1.18-.91-1.18Z" fill="#8c52ff" style="transform-origin:121.305px 85.33px"/>
</g>
<path class="animable" d="M94.68,87.76a9.64,9.64,0,0,1,3.74-1.4,3.68,3.68,0,0,1,2.65.62,4.94,4.94,0,0,1,1.63,2.44,14.71,14.71,0,0,1,.69,4c.07,1.87.07,3.79,0,5.75a25.11,25.11,0,0,1-.69,4.82,19.84,19.84,0,0,1-1.61,4.31A16.73,16.73,0,0,1,98.48,112a16.22,16.22,0,0,1-3.65,2.86l-7.34,4.24a.48.48,0,0,1-.55,0,.71.71,0,0,1-.24-.61V93.42a1.85,1.85,0,0,1,.24-.88,1.57,1.57,0,0,1,.55-.63Zm4.78,8a7.38,7.38,0,0,0-.37-2.1,2.7,2.7,0,0,0-.9-1.34,2.12,2.12,0,0,0-1.5-.38,5.42,5.42,0,0,0-2.15.8L90.63,95v17.47l4.05-2.34a8.42,8.42,0,0,0,2.07-1.64,9.71,9.71,0,0,0,1.45-2.06,10,10,0,0,0,.89-2.38,12.87,12.87,0,0,0,.37-2.54C99.53,99.51,99.53,97.59,99.46,95.72Z" fill="#8c52ff" style="transform-origin:95.0693px 102.753px"/>
<path class="animable" d="M116.34,75.26c.31-.18.55-.21.7-.08a1.6,1.6,0,0,1,.41.76l7.13,20.41a.93.93,0,0,1,0,.26,2,2,0,0,1-.23.87,1.51,1.51,0,0,1-.55.63l-2.1,1.21c-.39.22-.66.27-.82.14a1,1,0,0,1-.32-.46l-1.25-3.58-9.2,5.31-1.25,5a4.47,4.47,0,0,1-.32.83,2,2,0,0,1-.82.8l-2.09,1.21a.5.5,0,0,1-.56,0,.74.74,0,0,1-.23-.61,1.36,1.36,0,0,1,0-.29L112,79.06a6.16,6.16,0,0,1,.41-1.22,1.78,1.78,0,0,1,.7-.74Zm1.6,16.11-3.2-9.21-3.2,12.91Z" fill="#8c52ff" style="transform-origin:114.711px 91.8779px"/>
<path class="animable" d="M138.76,62.31a.48.48,0,0,1,.55,0,.71.71,0,0,1,.24.61v2.75a1.79,1.79,0,0,1-.24.87,1.45,1.45,0,0,1-.55.63l-5.24,3V91.46a2,2,0,0,1-.23.88,1.59,1.59,0,0,1-.56.63l-2.35,1.36a.5.5,0,0,1-.56,0,.74.74,0,0,1-.23-.61V72.46l-5.24,3a.46.46,0,0,1-.55,0,.68.68,0,0,1-.24-.6V72.13a1.85,1.85,0,0,1,.24-.87,1.5,1.5,0,0,1,.55-.63Z" fill="#8c52ff" style="transform-origin:131.555px 78.3196px"/>
<path class="animable" d="M150,55.84c.31-.18.54-.2.7-.07a1.7,1.7,0,0,1,.41.75l7.13,20.42a.85.85,0,0,1,0,.25,1.89,1.89,0,0,1-.23.87,1.46,1.46,0,0,1-.56.63l-2.09,1.21c-.39.23-.66.28-.82.15a1,1,0,0,1-.32-.46L153,76l-9.2,5.32-1.25,5a4.4,4.4,0,0,1-.32.82,2,2,0,0,1-.82.8l-2.1,1.21a.45.45,0,0,1-.55,0,.71.71,0,0,1-.23-.6,1.36,1.36,0,0,1,0-.29l7.13-28.65a5.5,5.5,0,0,1,.41-1.23,1.7,1.7,0,0,1,.7-.73ZM151.57,72l-3.2-9.22-3.2,12.92Z" fill="#8c52ff" style="transform-origin:148.386px 72.465px"/>
</g>
</g>
<g class="animable" style="transform-origin:84.485px 357.301px">
<g class="animable" style="transform-origin:84.485px 357.301px">
<g class="animable" style="transform-origin:84.485px 357.301px">
<g class="animable" style="transform-origin:78.8339px 402.261px">
<path class="animable" d="m109.25 397.56h-60.89l6.29 26.23c0.48 3.16 2.81 6.25 7 8.67 9.47 5.47 24.82 5.47 34.29 0 4.52-2.61 6.85-6 7.06-9.4z" fill="#37474f" style="transform-origin:78.805px 417.061px"/>
<path class="animable" d="m101.82 415.54a26.44 26.44 0 0 0 3.66-2.55l3.42-14a24.57 24.57 0 0 1-6.16 4.9c-12.84 7.41-33.43 7.6-46.71 0.6l1.54-6.25-0.47-0.66h-8.74l6.29 26.22c0.48 3.16 2.81 6.25 7 8.67 6.75 3.89 16.47 5 24.93 3.34-15.17 1.14-25.58-5.5-27.14-11.61-0.62-2.44-1.71-7.84-1.71-7.84 12.68 6.41 31.99 6.16 44.09-0.82z" fill="#263238" style="transform-origin:78.63px 417.068px"/>
<path class="animable" d="m112.41 389.8a12.8 12.8 0 0 1-2 4.74 22.46 22.46 0 0 1-7.64 6.78c-13.21 7.63-34.65 7.63-47.87 0a22.46 22.46 0 0 1-7.64-6.78 13 13 0 0 1-2-4.74c-1.18-5.73 2-11.71 9.67-16.11 13.22-7.64 34.66-7.64 47.87 0 7.56 4.4 10.79 10.38 9.61 16.11z" fill="#455a64" style="transform-origin:78.8339px 387.501px"/>
<path class="animable" d="m110.38 394.54a22.46 22.46 0 0 1-7.64 6.78c-13.21 7.63-34.65 7.63-47.87 0a22.46 22.46 0 0 1-7.64-6.78 13 13 0 0 1-2-4.74l1.5 10.32c0.69 4.16 3.78 8.2 9.3 11.38 12.6 7.27 33 7.27 45.61 0 5.44-3.14 8.54-7.13 9.27-11.23l0.08-0.53 1.45-9.94a12.8 12.8 0 0 1-2.06 4.74z" fill="#37474f" style="transform-origin:78.835px 403.376px"/>
<path class="animable" d="m98.76 376c-11-6.37-28.88-6.37-39.89 0-6.24 3.6-8.94 8.46-8.12 13.15 0.63 3.61 3.34 7.11 8.12 9.87 11 6.37 28.87 6.37 39.89 0 4.77-2.76 7.48-6.26 8.11-9.86 0.82-4.71-1.87-9.57-8.11-13.16z" fill="#263238" style="transform-origin:78.8102px 387.51px"/>
<path class="animable" d="m52.61 393.51a19 19 0 0 0 6.26 5.5c11 6.37 28.87 6.37 39.89 0a19 19 0 0 0 6.25-5.5c-0.08-3.81-2.63-7.61-7.67-10.51-10.23-5.92-26.83-5.92-37.06 0-5.04 2.91-7.59 6.7-7.67 10.51z" fill="#fafafa" style="transform-origin:78.81px 391.174px"/>
</g>
<g class="animable" style="transform-origin:84.485px 337.807px">
<path class="animable" d="m101.27 298.28-17.36 14.89 17-8.66a47.86 47.86 0 0 1-2.36 16.49s-8.33 5.42-13.11 10.08l13.07-5.76s1.25 8.72-1.88 22.21c-0.81 3.54-4.48 10.36-6.77 15.45a57.09 57.09 0 0 1-3.6 6.81l-0.25 0.41q-4.67-2.43-9.66-4.68c-2.31-4.41-5.52-15.39-6.88-24.43-5.17-34.61 20.35-55.55 41.22-63.05 0 0.03-6.91 9.42-9.42 20.24z" fill="#8c52ff" style="transform-origin:89.742px 324.12px"/>
<path class="animable" d="M86.35,300.31c-3.51,3.82-5.46,8.74-6.92,13.64a71,71,0,0,0-2.59,15.16,65.18,65.18,0,0,0,5,30h0a.5.5,0,0,1-.26.66.51.51,0,0,1-.67-.26h0a65.9,65.9,0,0,1-4.54-30.47,71.3,71.3,0,0,1,2.86-15.2C80.73,309,82.78,304.07,86.35,300.31Z" fill="#fff" style="transform-origin:81.2325px 330.061px"/>
<path class="animable" d="m24.32 315.22c0.4 0.62 7 10.82 16.29 30.21l18.79 5.48-14.4 0.74 6.09 13 15 4.14-11.63 2.68s2.29 14.89 12.09 22.21c5.41 4 7.93 4.43 10.15 3.45 2.72-1.19 4.44-5.17 6.22-11.2s1.2-18.73-3.1-31.54a38 38 0 0 0-4.93-9.63c-12.07-17.32-37.51-28.1-50.57-29.54z" fill="#8c52ff" style="transform-origin:54.0919px 356.397px"/>
<path class="animable" d="m24.32 315.22c0.4 0.62 7 10.82 16.29 30.21l18.79 5.48-14.4 0.74 6.09 13 15 4.14-11.63 2.68s2.29 14.89 12.09 22.21c5.41 4 7.93 4.43 10.15 3.45 2.72-1.19 4.44-5.17 6.22-11.2s1.2-18.73-3.1-31.54a38 38 0 0 0-4.93-9.63c-12.07-17.32-37.51-28.1-50.57-29.54z" opacity=".1" style="transform-origin:54.0919px 356.397px"/>
<path class="animable" d="M43.6,324c9.37,5.58,18,12.73,24.37,21.75a52.87,52.87,0,0,1,7.44,14.7,50,50,0,0,1,2.2,16.28,0,0,0,0,1-.1,0,64.59,64.59,0,0,0-3.12-16,59.29,59.29,0,0,0-7.12-14.54c-6.12-9-14.53-16.31-23.73-22.15a.06.06,0,0,1,0-.08A.06.06,0,0,1,43.6,324Z" fill="#fff" style="transform-origin:60.5791px 350.345px"/>
<path class="animable" d="M144.64,318.36h0a47.09,47.09,0,0,0-5.73.26A91.6,91.6,0,0,0,117,324c-2.62,1-5.25,2.08-7.84,3.32-1.29.62-2.57,1.27-3.83,2a63.49,63.49,0,0,0-16.81,12.71,39.88,39.88,0,0,0-5.79,8.13c-.2.38-.42.75-.61,1.14h0c-.49,1-.93,2-1.34,2.95-4.85,11-5.26,18.57-4.95,27,.24,6.54,2.46,14,3.73,15.25a3.8,3.8,0,0,0,.57.42c1.87,1.19,4.83.49,10.38-2.61,11.11-6.21,15.47-22,15.47-22l-15-3.42,19.36-3.16,8.05-12.56-14.81-2.69,20.14-3.1c12.21-18.75,20.41-28.38,20.91-29l0,0Z" fill="#8c52ff" style="transform-origin:110.196px 357.911px"/>
<path class="animable" d="M138.91,318.62A91.6,91.6,0,0,0,117,324c-2.62,1-5.25,2.08-7.84,3.32-1.29.62-2.57,1.27-3.83,2a63.49,63.49,0,0,0-16.81,12.71,39.88,39.88,0,0,0-5.79,8.13c-.2.38-.42.75-.61,1.14h0c-.49,1-.93,2-1.34,2.95-4.85,11-5.26,18.57-4.95,27,.24,6.54,2.46,14,3.73,15.25a3.8,3.8,0,0,0,.57.42,3.55,3.55,0,0,0,1.23.45c-1.37-10.14,3.61-35.86,11.17-46.44,7.86-11,26.5-27,52.12-32.46l0,0A48.28,48.28,0,0,0,138.91,318.62Z" fill="#8c52ff" style="transform-origin:110.201px 357.907px"/>
<path class="animable" d="M138.91,318.62A91.6,91.6,0,0,0,117,324c-2.62,1-5.25,2.08-7.84,3.32-1.29.62-2.57,1.27-3.83,2a63.49,63.49,0,0,0-16.81,12.71,39.88,39.88,0,0,0-5.79,8.13c-.2.38-.42.75-.61,1.14h0c-.49,1-.93,2-1.34,2.95-4.85,11-5.26,18.57-4.95,27,.24,6.54,2.46,14,3.73,15.25a3.8,3.8,0,0,0,.57.42,3.55,3.55,0,0,0,1.23.45c-1.37-10.14,3.61-35.86,11.17-46.44,7.86-11,26.5-27,52.12-32.46l0,0A48.28,48.28,0,0,0,138.91,318.62Z" opacity=".2" style="transform-origin:110.201px 357.907px"/>
<path class="animable" d="M81.25,397.29a87.07,87.07,0,0,1,1.46-22.43,72.2,72.2,0,0,1,7.44-21.27c3.8-6.62,9.25-12,15.06-16.81a84,84,0,0,1,19.32-11.58.07.07,0,0,1,.09,0,.07.07,0,0,1,0,.08A110.73,110.73,0,0,0,106,337.75a81.59,81.59,0,0,0-8.17,7.6A50,50,0,0,0,91,354.1,71.69,71.69,0,0,0,83.33,375a86.46,86.46,0,0,0-2,22.29s0,.07-.06.07A.07.07,0,0,1,81.25,397.29Z" fill="#fff" style="transform-origin:102.851px 361.272px"/>
</g>
</g>
</g>
</g>
<g class="animable" style="transform-origin:257.041px 408.561px">
<g class="animable" style="transform-origin:257.041px 408.561px">
<path class="animable" d="m275.73 408a2.93 2.93 0 0 1-3-0.29 9.21 9.21 0 0 1-4.19-7.22 2.91 2.91 0 0 1 1.22-2.7l51.95-32.86c1.07-0.72 2.59-0.68 4.28 0.29a12.92 12.92 0 0 1 5.86 10.1c0 1.95-0.72 3.29-1.87 3.86z" fill="#455a64" style="transform-origin:300.186px 386.36px"/>
<path class="animable" d="m268.58 400.47c0-2.66 1.86-3.74 4.17-2.42a9.21 9.21 0 0 1 4.19 7.22c0 2.67-1.86 3.75-4.17 2.42a9.21 9.21 0 0 1-4.19-7.22z" fill="#37474f" style="transform-origin:272.76px 402.873px"/>
<path class="animable" d="m262.44 411.8a5.6 5.6 0 0 1-2.53-4.37 1.78 1.78 0 0 1 0.74-1.64l10.32-6a1.77 1.77 0 0 1 1.79 0.17 5.58 5.58 0 0 1 2.53 4.37 1.76 1.76 0 0 1-0.74 1.63l-10.32 6a1.79 1.79 0 0 1-1.79-0.16z" fill="#8c52ff" style="transform-origin:267.6px 405.875px"/>
<path class="animable" d="m262.44 411.8a5.6 5.6 0 0 1-2.53-4.37 1.78 1.78 0 0 1 0.74-1.64l10.32-6a1.77 1.77 0 0 1 1.79 0.17 5.58 5.58 0 0 1 2.53 4.37 1.76 1.76 0 0 1-0.74 1.63l-10.32 6a1.79 1.79 0 0 1-1.79-0.16z" opacity=".2" style="transform-origin:267.6px 405.875px"/>
<path class="animable" d="M267.3,403.48l-1.18-.87-5.44,3.16a31.27,31.27,0,0,1,6.05,4.74l5-2.89c-.13-.16-.26-.32-.4-.47A32.57,32.57,0,0,0,267.3,403.48Z" opacity=".2" style="transform-origin:266.205px 406.56px"/>
<path class="animable" d="m274.72 399.75 53.44-32.84a10.27 10.27 0 0 0-2.13-1.7c-1.69-1-3.21-1-4.28-0.29l-51.95 32.84a2.93 2.93 0 0 1 2.95 0.29 7.62 7.62 0 0 1 1.97 1.7z" opacity=".15" style="transform-origin:298.98px 382.085px"/>
<path class="animable" d="m182.25 415.81v11.82c0 6.41 4.24 12.83 12.72 17.73 17 9.79 44.46 9.79 61.43 0 8.48-4.9 12.72-11.32 12.72-17.73v-11.82c0-6.42-4.24-12.84-12.72-17.74-17-9.79-44.47-9.79-61.43 0-8.48 4.9-12.72 11.32-12.72 17.74zm82.67 0c0 5.13-3.77 10.14-10.62 14.09-7.58 4.37-17.74 6.78-28.62 6.78s-21-2.41-28.61-6.78c-6.85-3.95-10.62-9-10.62-14.09s3.77-10.14 10.62-14.1c7.58-4.37 17.74-6.78 28.61-6.78s21 2.41 28.62 6.78c6.85 3.96 10.62 8.96 10.62 14.1z" fill="#8c52ff" style="transform-origin:225.685px 421.715px"/>
<path class="animable" d="m256.4 398.07c-17-9.79-44.46-9.79-61.43 0s-17 25.67 0 35.47 44.47 9.79 61.43 0 16.96-25.67 0-35.47zm-2.1 31.83c-7.58 4.37-17.74 6.78-28.61 6.78s-21-2.41-28.62-6.78c-6.84-3.95-10.62-9-10.62-14.09s3.78-10.14 10.62-14.1c7.58-4.37 17.74-6.78 28.62-6.78s21 2.41 28.61 6.78c6.85 4 10.62 9 10.62 14.1s-3.77 10.19-10.62 14.09z" fill="#fff" opacity=".3" style="transform-origin:225.676px 415.807px"/>
<path class="animable" d="m264.92 415.8a11.74 11.74 0 0 1-1.69 5.92c-1.73-3-4.76-5.78-8.93-8.18-7.57-4.38-17.74-6.79-28.62-6.79s-21 2.41-28.6 6.79c-4.18 2.4-7.21 5.2-8.94 8.18a11.74 11.74 0 0 1-1.69-5.92c0-5.13 3.77-10.14 10.63-14.09 7.57-4.37 17.73-6.78 28.6-6.78s21 2.41 28.62 6.78c6.85 3.95 10.62 8.96 10.62 14.09z" fill="#8c52ff" style="transform-origin:225.685px 408.325px"/>
<path class="animable" d="m264.92 415.8a11.74 11.74 0 0 1-1.69 5.92c-1.73-3-4.76-5.78-8.93-8.18-7.57-4.38-17.74-6.79-28.62-6.79s-21 2.41-28.6 6.79c-4.18 2.4-7.21 5.2-8.94 8.18a11.74 11.74 0 0 1-1.69-5.92c0-5.13 3.77-10.14 10.63-14.09 7.57-4.37 17.73-6.78 28.6-6.78s21 2.41 28.62 6.78c6.85 3.95 10.62 8.96 10.62 14.09z" opacity=".1" style="transform-origin:225.685px 408.325px"/>
<path class="animable" d="m254.3 407.06c-7.58-4.37-17.74-6.78-28.61-6.78s-21 2.41-28.62 6.78c-5.65 3.27-9.2 7.25-10.27 11.42 1.07 4.18 4.62 8.16 10.27 11.42 7.58 4.37 17.74 6.78 28.62 6.78s21-2.41 28.61-6.78c5.65-3.26 9.2-7.24 10.27-11.42-1.07-4.17-4.57-8.15-10.27-11.42z" fill="#fff" opacity=".6" style="transform-origin:225.685px 418.48px"/>
<path class="animable" d="m235.92 440.18v11.82a57.1 57.1 0 0 0 20.47-6.64c8.49-4.9 12.73-11.32 12.73-17.74v-11.82a15.14 15.14 0 0 0-0.52-3.87c2.06 7.64-2 15.72-12.2 21.61a57.1 57.1 0 0 1-20.48 6.64z" opacity=".1" style="transform-origin:252.52px 431.965px"/>
</g>
</g>
<g class="animable" style="transform-origin:383.654px 256.593px">
<g class="animable" style="transform-origin:383.654px 256.593px">
<g class="animable" style="transform-origin:404.407px 319.408px">
<path class="animable" d="M410.34,399.13c0-.23.8-12.44.8-12.44s-3.16,1.91-10.48,1.86c-3.73,0-9-3-9-3l.77,12.09c-.84-.23-1,1.83-2.45,2.62-2.42,1.38-7,1.65-11.39,1.92-1.15.08-2.47,0-3.66.07h-.08c-3.63.76-6.67,4-2.16,6.15s11,1.74,16.88,1.28C396.66,409.12,410.86,406.49,410.34,399.13Z" fill="#b16668" style="transform-origin:390.785px 397.799px"/>
<path class="animable" d="M360.06,408.9a7.78,7.78,0,0,0,.21,4c.38,1.37,4.57,5.45,11,7.18s13.66.47,17.23.81,7.06,1.75,11.24,2,9.82-.05,12.12-3.9a4.66,4.66,0,0,0,0-3.4C411,414.91,360.06,408.9,360.06,408.9Z" fill="#263238" style="transform-origin:386.037px 415.928px"/>
<path class="animable" d="M392.29,396c-.7-.33-1.57,2-2.52,2.33-2.78,1-7,.91-11.4,1.26-5.55.44-12-.32-15.47,1.75s-4,6.6,2.1,11.4c1.75,1.39,3.72,3.24,5.61,4,6.29,2.42,12.83,1,17,1.18,5.43.3,9.17,3,14.08,2.64,6.35-.49,9.62-2,10.27-5.77s-1.12-7.47-1.06-11.73c0-2.91.65-4.24-.55-4.12a7.2,7.2,0,0,1-3.7,2.24c-4.7,1.4-5.92-.49-10.48,4.75-1.41,1.61-2.43.88-2.69.61-.9-1-1.31-2.51-1.2-5.12,0-.83.1-3.79.1-3.79Z" fill="#37474f" style="transform-origin:386.22px 408.281px"/>
<path class="animable" d="m370.61 416.72s-2.4-14.67 5.54-17l1-0.06s-0.19-1-3.35-1.19c-6.07-0.37-9.88 0.5-12.37 3.27a8.43 8.43 0 0 0-1.46 7c0.87 2.85 4.03 6.06 10.64 7.98z" fill="#fafafa" style="transform-origin:368.447px 407.555px"/>
<path class="animable" d="m374.59 407.91s0.43-6.86 5-8.4a4.75 4.75 0 0 1 2.36-0.14s-5.12 1.32-5.62 8.55c0 0-0.11 0.51-1 0.52-0.27 0-0.77 0.03-0.74-0.53z" fill="#fafafa" style="transform-origin:378.269px 403.861px"/>
<path class="animable" d="M385.6,399.11s-.08-.15-1-.06a4.44,4.44,0,0,0-1.16.23,8.7,8.7,0,0,0-4.38,8.66s-.08.53.78.4,1-.58,1-.58S380.39,401.75,385.6,399.11Z" fill="#fafafa" style="transform-origin:382.297px 403.691px"/>
<path class="animable" d="M389,398.57s-.21-.14-.95,0c-.92.19-1.09.41-1.09.41s-4.32,3.21-3.39,8.36c0,0,.05.55.92.37s.76-.72.76-.72A8.66,8.66,0,0,1,389,398.57Z" fill="#fafafa" style="transform-origin:386.219px 403.127px"/>
<path class="animable" d="M413.83,373.32c-.2,2.64-.52,5,.46,7.91,1.41,4.16,4.39,6.06,6.14,7.71a31,31,0,0,1,5.1,6.43c1.24,2.11,1.73,4.57,5.32,6.93,3.19,2.11,9,2.22,12.61-.15,2.06-1.37,3-1.88,2.87-5.63s-15.08-4.23-15.08-4.23Z" fill="#263238" style="transform-origin:429.979px 388.613px"/>
<path class="animable" d="M444.92,385.32c.93.37,1.16,2.22,1.31,5.9.1,2.78,1.22,6.85-2.45,8.61-3,1.41-8.51,3.11-13.73-1.35-3.11-2.65-4.2-6.15-7.77-10.15-3.09-3.46-6.32-4.63-7.69-11.56-.89-4.45-.19-6.29,2.68-7.57,4-1.75,10.17,4,13.26,4.88C433.2,374.86,444,385,444.92,385.32Z" fill="#37474f" style="transform-origin:430.348px 385.114px"/>
<path class="animable" d="m430.53 374.08a3.33 3.33 0 0 1-0.52-0.19 10.24 10.24 0 0 0-8.56 5.85c-0.53 1.22 1.1 2.16 2.06 1.22a10.84 10.84 0 0 1 8.56-5.82 4.77 4.77 0 0 0-1.54-1.06z" fill="#fafafa" style="transform-origin:426.708px 377.616px"/>
<path class="animable" d="m433.09 376.18a10.19 10.19 0 0 0-7.95 5.8c-0.53 1.21 1.1 2.16 2.06 1.21a10.51 10.51 0 0 1 7.14-5.55c-0.43-0.52-0.85-1.02-1.25-1.46z" fill="#fafafa" style="transform-origin:429.688px 379.879px"/>
<path class="animable" d="m416.4 381.9s0.31-8.24 11-9.39l0.62 0.36a9.37 9.37 0 0 0-5.26-4.23c-3.56-1-6.37 0-8.23 2.46s0.02 9.19 1.87 10.8z" fill="#fafafa" style="transform-origin:420.892px 375.078px"/>
<path class="animable" d="M445.84,362.87s-.64,21.89-.81,23.26-.67,2.83-6,3.25-9.34-2.71-10-4.27-2.33-22.65-2.33-22.65Z" fill="#b16668" style="transform-origin:436.27px 375.939px"/>
<path class="animable" d="M449.07,333c0-15.61-.92-21.4-.92-21.4s.68-20.71.55-42.63c-.17-30.42,1.8-36.48-3.21-53.11-8.21,7.11-41.61,9.69-59.86,5.24-.52,36.7.71,87,1.1,96.65.44,10.92.91,20.46,2.78,45.91,1.21,16.52,2.33,29.77,2.33,29.77,9.92,6.09,19.43-.23,19.43-.23s2.61-31,3.75-42.08c1.2-11.83-.38-28.88-.38-28.88s2.51-25.88,3.43-33c0,0,1.09,10.94,1.79,20.61s1.49,13.7,3.17,32.41c1.65,18.36,4.46,39.07,4.46,39.07,10.68,3.4,18.35,0,18.35,0S449.06,344.05,449.07,333Z" fill="#455a64" style="transform-origin:417.287px 305.969px"/>
<path class="animable" d="M418.07,289.25l3.58-29.72a32.2,32.2,0,0,0,19.27-7.39s-2.59,7.53-15.2,11.6l-5.09,25.58-.85,19.58Z" fill="#37474f" style="transform-origin:429.495px 280.52px"/>
</g>
<g class="animable" style="transform-origin:383.654px 167.727px">
<polygon class="animable" points="409.62 142.7 411.73 158.16 432.73 157.09 430.46 140.35" fill="#b16668" style="transform-origin:421.175px 149.255px"/>
<path class="animable" d="m401.26 113.79c-1.61 2.06-6.64 8.25-6.83 9.43l4.1 2.52z" fill="#9a4a4d" style="transform-origin:397.845px 119.765px"/>
<path class="animable" d="M412.94,98.25c-6.49-.7-10.7,3.9-12.59,17.71-.07.54-.87,1.39-1.48,3.46-2.6,8.86-1.14,17.3.35,19.54,3.76,3,7.94,4.15,14,3.64,4.61-.39,16.38-1.8,22.35-8,7-7.33,10.56-18.37,5.58-24.1C434.13,102.4,416.51,98.63,412.94,98.25Z" fill="#b16668" style="transform-origin:420.458px 120.449px"/>
<path class="animable" d="M399.22,139c.84,1.24,6.78,4.29,10.51,4.53l-.35-2.9A38.68,38.68,0,0,1,399.22,139Z" fill="#9a4a4d" style="transform-origin:404.475px 141.265px"/>
<path class="animable" d="M411.65,122.45a1.22,1.22,0,0,0,2.17.36,16.38,16.38,0,0,1,2.37-2.75,5.91,5.91,0,0,1,4-1.35c5.45.41,4.12,7.59,1.44,10.09-4.37,4.08-6.7.55-6.7.55s-3.14,6.94,1.44,11c0,0,7.9,3.42,14.11,1.49,4.65-5,7.76-8.16,10.88-12.47,7.4-10.2,7.41-20.29,2.66-23.17.27-3.62-1.69-9.06-9.12-12.2-7.08-3-11.82-2.7-17-2.42s-11.41,2.63-16.17-1.35a9.74,9.74,0,0,0,.79,8.87,3.22,3.22,0,0,0-2.78,5.8,2.54,2.54,0,0,0-1.16,3,3.09,3.09,0,0,0,2.67,2,12.9,12.9,0,0,0,3.22-.21c1.49,4.18,6.21,5.65,9,5.47-.08,0-.45.57-.5.65a7.71,7.71,0,0,0-.44.72,8.24,8.24,0,0,0-.67,1.56,8.7,8.7,0,0,0-.4,3.36A3.23,3.23,0,0,0,411.65,122.45Z" fill="#263238" style="transform-origin:422.679px 116.33px"/>
<path class="animable" d="M435.67,149c7.8-.37,15.54,1.94,20.28,12.8,4.48,10.27,10.78,25.1,13.1,32.56,1.13,3.64,3.19,6.91-3.59,13.32a107.52,107.52,0,0,1-20.82,14.83l-6.82-14.61,10.66-10.23-4.7-9.77Z" fill="#455a64" style="transform-origin:452.96px 185.737px"/>
<path class="animable" d="M448.48,197.63A13.94,13.94,0,0,0,454.8,203c-3,.73-6.29-2.5-7.29-4.4Z" fill="#263238" style="transform-origin:451.155px 200.368px"/>
<path class="animable" d="M441.29,151.28c5.45,3.05,9.58,13.23,9.18,21.72-.25,5.38-2.14,19.26-3.75,31.54-.51,3.86,1,10.39,1.74,18.23.53,5.82.61,12,.61,12s-7.3,9-27.35,10.22c-25.58,1.5-36.91-4.68-36.91-4.68s-.15-20.85.46-37.35c.92-24.48,1-31.64,4.8-40,1.26-2.47,2.59-7.95,6.75-9,3.3-.86,10.92-2.69,13.94-3.15,4.94,1.28,17.77,1.38,20.94-1.32l-.05-.71C437.15,148.72,437.93,149.4,441.29,151.28Z" fill="#8c52ff" style="transform-origin:417.645px 197.001px"/>
<g class="animable" opacity=".4" style="transform-origin:417.645px 197.001px">
<path class="animable" d="M441.29,151.28c5.45,3.05,9.58,13.23,9.18,21.72-.25,5.38-2.14,19.26-3.75,31.54-.51,3.86,1,10.39,1.74,18.23.53,5.82.61,12,.61,12s-7.3,9-27.35,10.22c-25.58,1.5-36.91-4.68-36.91-4.68s-.15-20.85.46-37.35c.92-24.48,1-31.64,4.8-40,1.26-2.47,2.59-7.95,6.75-9,3.3-.86,10.92-2.69,13.94-3.15,4.94,1.28,17.77,1.38,20.94-1.32l-.05-.71C437.15,148.72,437.93,149.4,441.29,151.28Z" fill="#fff" style="transform-origin:417.645px 197.001px"/>
</g>
<g class="animable" style="transform-origin:349.324px 152.651px">
<path class="animable" d="M315,133.77c-2.82-3.52-4.31-5-5.82-5.88s-6.61-4.77-8.66-5.9c-1.3-.71-2.44,1.36-1.07,3.34,1.06,1.53,4.2,4,5.53,5.26s3.41,5.77,3.41,5.77Z" fill="#9a4a4d" style="transform-origin:306.914px 129.104px"/>
<path class="animable" d="M344.9,180.71c3,1.67,5.87,1.23,15.9.7,7.16-.38,17.06-.67,33.9-2.24,6.29-6.3,7.81-17.31,1.54-24.06-6.55-1.51-26.38,6.45-47.56,6,0,0-20.88-9.55-23.18-11.25s-6.52-10.63-8.11-13.23c-2.17-3.54-3.7-3.55-5.23-3.71-5-.54-6.18-.42-7.37,0a2.28,2.28,0,0,0-1.43,1.64c-1.33-.18-3.23-.72-4,1.32a6,6,0,0,0-.52,1.66,1.47,1.47,0,0,0-1,.26c-1.39.95-.68,5.71.21,7,.62,1,1.76,1.35,3.34,1.54,1.34.16,1.08-1.31,1.08-1.31l1.79.58c3.19,3.81,1.94,9.39,6.8,12a35.67,35.67,0,0,1,6,2.89C329,170,341.09,178.56,344.9,180.71Z" fill="#b16668" style="transform-origin:348.653px 157.223px"/>
<path class="animable" d="m303.36 134.5 6 0.34-5.71-1.11a2.34 2.34 0 0 0-0.29 0.77z" fill="#9a4a4d" style="transform-origin:306.36px 134.285px"/>
<path class="animable" d="m298.81 137.48 6.82 0.88-6.63-1.65a3.47 3.47 0 0 0-0.19 0.77z" fill="#9a4a4d" style="transform-origin:302.22px 137.535px"/>
<path class="animable" d="M298.92,140.61a2.09,2.09,0,0,0,.68,1,4.76,4.76,0,0,0,1,.69l-.07-.09c.08.39.18.78.28,1.16l.19-.14a1.37,1.37,0,0,0-1.12,0,1.73,1.73,0,0,0-.8.71,2.22,2.22,0,0,1,.86-.55,1.37,1.37,0,0,1,.94.08l.24.11-.06-.26c-.09-.39-.18-.78-.29-1.16v-.06l-.06,0a6,6,0,0,1-1-.59A2.45,2.45,0,0,1,298.92,140.61Z" fill="#9a4a4d" style="transform-origin:300.02px 142.275px"/>
<path class="animable" d="M300.45,141.92a20.41,20.41,0,0,0,2.34.79,2.64,2.64,0,0,0,.48,1.49,14.37,14.37,0,0,0,1,1.4l-1.79-.58s-.23-.93-1.78-1.67Z" fill="#9a4a4d" style="transform-origin:302.36px 143.76px"/>
<path class="animable" d="M397.44,153.81a52.8,52.8,0,0,0-12.85,1.81c-3.9,1.06-18.16,3.75-22.25,4.14s-13.68.88-13.68.88L336,155.19s-2.24.76-4.5,5.45-.77,10.88-.77,10.88,11.16,7.7,13.58,9.27,3.82,1.93,7.54,1.65,28.65-1.81,31.49-1.49,3.62,1.33,5.21,2.25,5.84-.66,8.56-4.78S405.49,159.84,397.44,153.81Z" fill="#455a64" style="transform-origin:365.92px 168.632px"/>
</g>
</g>
</g>
</g>
<g id="freepik--speech-bubble--inject-49" class="animable" style="transform-origin:420.25px 55.8758px">
<g id="c" class="animable" style="transform-origin:420.25px 55.8758px">
<g class="animable" style="transform-origin:420.25px 55.8758px">
<path class="animable" d="M418.65,85l3.11-5.85-2.5-7.24V67.5l7.67,4.43v4.43l-3.3,5.71a.52.52,0,0,1-.22.2h0Z" fill="#8c52ff" style="transform-origin:422.79px 76.25px"/>
<path class="animable" d="M418.65,85l3.11-5.85-2.5-7.24V67.5l7.67,4.43v4.43l-3.3,5.71a.52.52,0,0,1-.22.2h0Z" opacity=".2" style="transform-origin:422.79px 76.25px"/>
<path class="animable" d="M400.33,32.28a5.08,5.08,0,0,1,2.3-4l1.87-1.08a5.1,5.1,0,0,1,4.6,0l28.72,16.61a5.1,5.1,0,0,1,2.3,4v31.6a5.07,5.07,0,0,1-2.3,4L436,84.49a5.1,5.1,0,0,1-4.6,0l-9.24-5.34-3.29,5.7a.49.49,0,0,1-.89-.08l-3.48-10-11.82-6.85a5.07,5.07,0,0,1-2.3-4Z" fill="#8c52ff" style="transform-origin:420.225px 55.8758px"/>
<path class="animable" d="M440.12,79.42a5.07,5.07,0,0,1-2.3,4L436,84.49a5.14,5.14,0,0,1-4.21.18c1.09.41,1.91-.2,1.91-1.51V51.55a4.75,4.75,0,0,0-.67-2.26l6.47-3.74a4.64,4.64,0,0,1,.67,2.27Z" opacity=".2" style="transform-origin:435.98px 65.293px"/>
<path class="animable" d="M400.4,31.63c.27-1,1.16-1.29,2.22-.67l28.73,16.61A4.64,4.64,0,0,1,433,49.29l6.47-3.74a4.61,4.61,0,0,0-1.62-1.71L409.1,27.22a5.1,5.1,0,0,0-4.6,0l-1.88,1.08A5.13,5.13,0,0,0,400.4,31.63Z" fill="#fff" opacity=".3" style="transform-origin:419.935px 37.981px"/>
</g>
<g class="animable" style="transform-origin:417.686px 58.8994px">
<path class="animable" d="m413 68.87a1.67 1.67 0 0 1-0.31 0 2.33 2.33 0 0 1-1.81-1.32l-3.76-7.94a2.34 2.34 0 0 1 4.24-2l2.23 4.67 10.76-12.54a2.34 2.34 0 0 1 3.56 3.05l-13.1 15.27a2.35 2.35 0 0 1-1.81 0.81z" fill="#fafafa" style="transform-origin:417.686px 58.8994px"/>
</g>
</g>
</g>
</svg>
